ISO-10303-21;
HEADER;
FILE_DESCRIPTION(
  ('This file contains a STEP AP42 implementation'
    ,'as created by ZW3D STEP Interface translator.'
    ,'')
  ,'2;1'
  );
FILE_NAME(
  '爪子方案1上固定片.stp'
  ,'26 916.14 337',
  (''),
  ('ZWCAD Software Co.'),
  'Version 1.0',
  'ZW3D to STEP translator',
  ''
  );
FILE_SCHEMA(('AUTOMOTIVE_DESIGN { 1 0 10303 214 1 1 1 1 }'));
ENDSEC;

DATA;

/**File Base Unit**/
#1=(LENGTH_UNIT()NAMED_UNIT(*)SI_UNIT(.MILLI.,.METRE.));
#2=(NAMED_UNIT(*)PLANE_ANGLE_UNIT()SI_UNIT($,.RADIAN.));
#3=(NAMED_UNIT(*)SI_UNIT($,.STERADIAN.)SOLID_ANGLE_UNIT());
#4=UNCERTAINTY_MEASURE_WITH_UNIT(LENGTH_MEASURE(0.01),#1,'DISTANCE_ACCURACY_VALUE','Maximum Tolerance applied to model');
#5=(GEOMETRIC_REPRESENTATION_CONTEXT(3)GLOBAL_UNCERTAINTY_ASSIGNED_CONTEXT((#4))GLOBAL_UNIT_ASSIGNED_CONTEXT((#1,#2,#3))REPRESENTATION_CONTEXT('STEP 203','TOP_LEVEL_ASSEMBLY_PART'));

/**product_definition_shape**/
#6=APPLICATION_CONTEXT('mechanical parts and assemblies' );
#7=DESIGN_CONTEXT('NONE',#6,'design');
#8=MECHANICAL_CONTEXT('NONE',#6,'mechanical');
#9=PRODUCT('0','Part','',(#8));
#10=PRODUCT_DEFINITION_FORMATION_WITH_SPECIFIED_SOURCE('ANY','',#9,.NOT_KNOWN.);
#11=PRODUCT_DEFINITION('UNKNOWN','',#10,#7);
#12=PRODUCT_DEFINITION_SHAPE('NONE','NONE',#11);
#13=PRODUCT_RELATED_PRODUCT_CATEGORY('detail','',(#9));
/**geometry information**/
#14=CARTESIAN_POINT('',(0.,0.,0.));
#15=DIRECTION('',(0.,0.,1.));
#16=DIRECTION('',(1.,0.,0.));
#17=AXIS2_PLACEMENT_3D('',#14,#15,#16);
#18=SHAPE_REPRESENTATION('none',(#17),#5);
#19=SHAPE_DEFINITION_REPRESENTATION(#12,#18);
#20=CARTESIAN_POINT('',(6.6613381477509E-16,15.,-1.));
#21=DIRECTION('',(1.,0.,-3.4694469519536E-16));
#22=DIRECTION('',(0.,0.,1.));
#23=AXIS2_PLACEMENT_3D('',#20,#22,#21);
#24=CYLINDRICAL_SURFACE('',#23,1.6);
#25=CARTESIAN_POINT('',(1.6,15.,-7.0424427700615E-16));
#26=VERTEX_POINT('',#25);
#27=CARTESIAN_POINT('',(1.6,15.,2.));
#28=VERTEX_POINT('',#27);
#29=CARTESIAN_POINT('',(1.6,15.,-7.7715611723761E-16));
#30=DIRECTION('',(0.,0.,1.));
#31=VECTOR('',#30,2.);
#32=LINE('',#29,#31);
#33=EDGE_CURVE('',#26,#28,#32,.T.);
#34=ORIENTED_EDGE('E6',*,*,#33,.T.);
#35=CARTESIAN_POINT('',(-3.5527136788005E-15,15.,2.));
#36=DIRECTION('',(1.,-2.407412430484E-31,4.9065389333868E-16));
#37=DIRECTION('',(-4.9065389333868E-16,-4.9065389333868E-16,1.));
#38=AXIS2_PLACEMENT_3D('',#35,#37,#36);
#39=CIRCLE('',#38,1.6);
#40=EDGE_CURVE('',#28,#28,#39,.T.);
#41=ORIENTED_EDGE('E21',*,*,#40,.F.);
#42=ORIENTED_EDGE('E21',*,*,#33,.F.);
#43=CARTESIAN_POINT('',(1.9984014443253E-15,15.,-8.6123989194505E-16));
#44=DIRECTION('',(1.,-9.8130778667736E-17,1.2194129823123E-16));
#45=DIRECTION('',(1.2194129823123E-16,-1.2194129823123E-16,-1.));
#46=AXIS2_PLACEMENT_3D('',#43,#45,#44);
#47=CIRCLE('',#46,1.6);
#48=EDGE_CURVE('',#26,#26,#47,.T.);
#49=ORIENTED_EDGE('E20',*,*,#48,.F.);
#50=EDGE_LOOP('',(#34,#41,#42,#49));
#51=FACE_OUTER_BOUND('',#50,.F.);
#52=ADVANCED_FACE('F13',(#51),#24,.F.);
#53=CARTESIAN_POINT('',(0.,0.,-1.));
#54=DIRECTION('',(1.,-6.1232339957368E-17,0.));
#55=DIRECTION('',(0.,6.1232339957368E-17,1.));
#56=AXIS2_PLACEMENT_3D('',#53,#55,#54);
#57=CYLINDRICAL_SURFACE('',#56,3.);
#58=CARTESIAN_POINT('',(3.,-1.2246467991474E-16,-1.6653345369377E-16));
#59=VERTEX_POINT('',#58);
#60=CARTESIAN_POINT('',(3.,-3.0616169978684E-17,1.5));
#61=VERTEX_POINT('',#60);
#62=CARTESIAN_POINT('',(3.,-1.2246467991474E-16,-2.2204460492503E-16));
#63=DIRECTION('',(0.,6.1232339957368E-17,1.));
#64=VECTOR('',#63,1.5);
#65=LINE('',#62,#64);
#66=EDGE_CURVE('',#59,#61,#65,.T.);
#67=ORIENTED_EDGE('E9',*,*,#66,.T.);
#68=CARTESIAN_POINT('',(-8.8817841970013E-16,-1.8762541584706E-16,1.5));
#69=DIRECTION('',(1.,5.2336415289459E-17,2.616820764473E-17));
#70=DIRECTION('',(2.616820764473E-17,-2.616820764473E-17,-1.));
#71=AXIS2_PLACEMENT_3D('',#68,#70,#69);
#72=CIRCLE('',#71,3.);
#73=EDGE_CURVE('',#61,#61,#72,.T.);
#74=ORIENTED_EDGE('E22',*,*,#73,.T.);
#75=ORIENTED_EDGE('E22',*,*,#66,.F.);
#76=CARTESIAN_POINT('',(-4.4408920985006E-16,-4.4408920985006E-16,-2.2204460492503E-16));
#77=DIRECTION('',(1.,1.0720817664511E-16,3.7007434154172E-17));
#78=DIRECTION('',(3.7007434154172E-17,-3.7007434154172E-17,-1.));
#79=AXIS2_PLACEMENT_3D('',#76,#78,#77);
#80=CIRCLE('',#79,3.);
#81=EDGE_CURVE('',#59,#59,#80,.T.);
#82=ORIENTED_EDGE('E19',*,*,#81,.F.);
#83=EDGE_LOOP('',(#67,#74,#75,#82));
#84=FACE_OUTER_BOUND('',#83,.F.);
#85=ADVANCED_FACE('F19',(#84),#57,.F.);
#86=CARTESIAN_POINT('',(12.990381056767,-7.5,-1.));
#87=DIRECTION('',(-0.5,-0.86602540378444,0.));
#88=DIRECTION('',(0.,0.,1.));
#89=AXIS2_PLACEMENT_3D('',#86,#88,#87);
#90=CYLINDRICAL_SURFACE('',#89,1.6);
#91=CARTESIAN_POINT('',(12.190381056767,-8.8856406460551,-1.6653345369377E-16));
#92=VERTEX_POINT('',#91);
#93=CARTESIAN_POINT('',(12.190381056767,-8.8856406460551,2.));
#94=VERTEX_POINT('',#93);
#95=CARTESIAN_POINT('',(12.190381056767,-8.8856406460551,-2.2204460492503E-16));
#96=DIRECTION('',(0.,0.,1.));
#97=VECTOR('',#96,2.);
#98=LINE('',#95,#97);
#99=EDGE_CURVE('',#92,#94,#98,.T.);
#100=ORIENTED_EDGE('E18',*,*,#99,.T.);
#101=CARTESIAN_POINT('',(12.990381056767,-7.5,2.));
#102=DIRECTION('',(-0.5,-0.86602540378444,1.9626155733547E-16));
#103=DIRECTION('',(-7.1836715771079E-17,2.6809827310655E-16,1.));
#104=AXIS2_PLACEMENT_3D('',#101,#103,#102);
#105=CIRCLE('',#104,1.6);
#106=EDGE_CURVE('',#94,#94,#105,.T.);
#107=ORIENTED_EDGE('E27',*,*,#106,.F.);
#108=ORIENTED_EDGE('E27',*,*,#99,.F.);
#109=CARTESIAN_POINT('',(12.990381056767,-7.5,-2.2204460492503E-16));
#110=DIRECTION('',(-0.5,-0.86602540378444,6.9388939039072E-17));
#111=DIRECTION('',(-9.4787053469022E-17,-2.539811442995E-17,-1.));
#112=AXIS2_PLACEMENT_3D('',#109,#111,#110);
#113=CIRCLE('',#112,1.6);
#114=EDGE_CURVE('',#92,#92,#113,.T.);
#115=ORIENTED_EDGE('E25',*,*,#114,.F.);
#116=EDGE_LOOP('',(#100,#107,#108,#115));
#117=FACE_OUTER_BOUND('',#116,.F.);
#118=ADVANCED_FACE('F15',(#117),#90,.F.);
#119=CARTESIAN_POINT('',(-12.990381056767,-7.5,-1.));
#120=DIRECTION('',(-0.5,0.86602540378444,0.));
#121=DIRECTION('',(0.,0.,1.));
#122=AXIS2_PLACEMENT_3D('',#119,#121,#120);
#123=CYLINDRICAL_SURFACE('',#122,1.6);
#124=CARTESIAN_POINT('',(-13.790381056767,-6.1143593539449,-1.4747446503285E-16));
#125=VERTEX_POINT('',#124);
#126=CARTESIAN_POINT('',(-13.790381056767,-6.1143593539449,2.));
#127=VERTEX_POINT('',#126);
#128=CARTESIAN_POINT('',(-13.790381056767,-6.1143593539449,-2.2204460492503E-16));
#129=DIRECTION('',(-8.8817841970013E-16,-4.4408920985006E-16,1.));
#130=VECTOR('',#129,2.);
#131=LINE('',#128,#130);
#132=EDGE_CURVE('',#125,#127,#131,.T.);
#133=ORIENTED_EDGE('E15',*,*,#132,.T.);
#134=CARTESIAN_POINT('',(-12.990381056767,-7.5,2.));
#135=DIRECTION('',(-0.5,0.86602540378444,1.9626155733547E-16));
#136=DIRECTION('',(2.6809827310655E-16,-7.1836715771079E-17,1.));
#137=AXIS2_PLACEMENT_3D('',#134,#136,#135);
#138=CIRCLE('',#137,1.6);
#139=EDGE_CURVE('',#127,#127,#138,.T.);
#140=ORIENTED_EDGE('E26',*,*,#139,.F.);
#141=ORIENTED_EDGE('E26',*,*,#132,.F.);
#142=CARTESIAN_POINT('',(-12.990381056767,-7.5,-2.2204460492503E-16));
#143=DIRECTION('',(-0.5,0.86602540378444,6.9388939039072E-17));
#144=DIRECTION('',(2.539811442995E-17,9.4787053469022E-17,-1.));
#145=AXIS2_PLACEMENT_3D('',#142,#144,#143);
#146=CIRCLE('',#145,1.6);
#147=EDGE_CURVE('',#125,#125,#146,.T.);
#148=ORIENTED_EDGE('E24',*,*,#147,.F.);
#149=EDGE_LOOP('',(#133,#140,#141,#148));
#150=FACE_OUTER_BOUND('',#149,.F.);
#151=ADVANCED_FACE('F14',(#150),#123,.F.);
#152=CARTESIAN_POINT('',(6.6613381477509E-16,0.,1.5));
#153=DIRECTION('',(1.,-4.7713511655092E-17,1.153478467143E-16));
#154=DIRECTION('',(-3.7007434154172E-17,6.1232339957368E-17,1.));
#155=AXIS2_PLACEMENT_3D('',#152,#154,#153);
#156=CYLINDRICAL_SURFACE('',#155,3.85);
#157=CARTESIAN_POINT('',(3.85,-1.836970198721E-16,1.5));
#158=VERTEX_POINT('',#157);
#159=CARTESIAN_POINT('',(-4.4408920985006E-16,-5.2555705300696E-16,1.5));
#160=DIRECTION('',(1.,8.8794813801261E-17,-0.));
#161=DIRECTION('',(0.,0.,1.));
#162=AXIS2_PLACEMENT_3D('',#159,#161,#160);
#163=CIRCLE('',#162,3.85);
#164=EDGE_CURVE('',#158,#158,#163,.T.);
#165=ORIENTED_EDGE('E10',*,*,#164,.T.);
#166=CARTESIAN_POINT('',(3.85,-1.5308084989342E-16,2.));
#167=VERTEX_POINT('',#166);
#168=CARTESIAN_POINT('',(3.85,-1.836970198721E-16,1.5));
#169=DIRECTION('',(8.8817841970012E-16,6.1232339957368E-17,1.));
#170=VECTOR('',#169,0.5);
#171=LINE('',#168,#170);
#172=EDGE_CURVE('',#158,#167,#171,.T.);
#173=ORIENTED_EDGE('E12',*,*,#172,.T.);
#174=CARTESIAN_POINT('',(-1.7763568394003E-15,0.,2.));
#175=DIRECTION('',(1.,-3.9761259712576E-17,2.306956934286E-16));
#176=DIRECTION('',(-2.435121215581E-16,-2.2198700435175E-17,1.));
#177=AXIS2_PLACEMENT_3D('',#174,#176,#175);
#178=CIRCLE('',#177,3.85);
#179=EDGE_CURVE('',#167,#167,#178,.T.);
#180=ORIENTED_EDGE('E23',*,*,#179,.F.);
#181=ORIENTED_EDGE('E23',*,*,#172,.F.);
#182=EDGE_LOOP('',(#165,#173,#180,#181));
#183=FACE_OUTER_BOUND('',#182,.F.);
#184=ADVANCED_FACE('F23',(#183),#156,.F.);
#185=CARTESIAN_POINT('',(0.,0.,1.5));
#186=DIRECTION('',(1.,0.,0.));
#187=DIRECTION('',(0.,0.,1.));
#188=AXIS2_PLACEMENT_3D('',#185,#187,#186);
#189=PLANE('',#188);
#190=ORIENTED_EDGE('',*,*,#164,.T.);
#191=EDGE_LOOP('',(#190));
#192=FACE_OUTER_BOUND('',#191,.T.);
#193=ORIENTED_EDGE('',*,*,#73,.T.);
#194=EDGE_LOOP('',(#193));
#195=FACE_BOUND('',#194,.T.);
#196=ADVANCED_FACE('F24',(#192,#195),#189,.T.);
#197=CARTESIAN_POINT('',(7.105427357601E-15,3.5527136788005E-15,-0.074328568845497));
#198=DIRECTION('',(1.,-1.9931616701805E-16,5.5511151231258E-17));
#199=DIRECTION('',(0.,6.1679056923619E-17,1.));
#200=AXIS2_PLACEMENT_3D('',#197,#199,#198);
#201=CYLINDRICAL_SURFACE('',#200,18.);
#202=CARTESIAN_POINT('',(-10.242550282694,14.801694622795,2.));
#203=VERTEX_POINT('',#202);
#204=CARTESIAN_POINT('',(-10.242550282694,14.801694622795,-5.1664469259497E-16));
#205=VERTEX_POINT('',#204);
#206=CARTESIAN_POINT('',(-10.242550282695,14.801694622795,2.));
#207=DIRECTION('',(0.,-8.8817841970013E-16,-1.));
#208=VECTOR('',#207,2.);
#209=LINE('',#206,#208);
#210=EDGE_CURVE('',#203,#205,#209,.T.);
#211=ORIENTED_EDGE('E93',*,*,#210,.F.);
#212=CARTESIAN_POINT('',(10.242550282695,14.801694622795,2.));
#213=VERTEX_POINT('',#212);
#214=CARTESIAN_POINT('',(0.,5.3290705182008E-15,2.));
#215=DIRECTION('',(0.56903057126081,0.82231636793305,0.));
#216=DIRECTION('',(0.,0.,1.));
#217=AXIS2_PLACEMENT_3D('',#214,#216,#215);
#218=CIRCLE('',#217,18.);
#219=EDGE_CURVE('',#213,#203,#218,.T.);
#220=ORIENTED_EDGE('E67',*,*,#219,.F.);
#221=CARTESIAN_POINT('',(10.242550282695,14.801694622795,-4.5492128242828E-16));
#222=VERTEX_POINT('',#221);
#223=CARTESIAN_POINT('',(10.242550282695,14.801694622795,-7.7715611723761E-16));
#224=DIRECTION('',(0.,0.,1.));
#225=VECTOR('',#224,2.);
#226=LINE('',#223,#225);
#227=EDGE_CURVE('',#222,#213,#226,.T.);
#228=ORIENTED_EDGE('E95',*,*,#227,.F.);
#229=CARTESIAN_POINT('',(0.,5.3290705182008E-15,0.));
#230=DIRECTION('',(0.56903057126081,0.82231636793305,0.));
#231=DIRECTION('',(0.,0.,1.));
#232=AXIS2_PLACEMENT_3D('',#229,#231,#230);
#233=CIRCLE('',#232,18.);
#234=EDGE_CURVE('',#222,#205,#233,.T.);
#235=ORIENTED_EDGE('E66',*,*,#234,.T.);
#236=EDGE_LOOP('',(#211,#220,#228,#235));
#237=FACE_OUTER_BOUND('',#236,.T.);
#238=ADVANCED_FACE('F45',(#237),#201,.T.);
#239=CARTESIAN_POINT('',(-7.105427357601E-15,3.5527136788005E-15,-0.8800749954796));
#240=DIRECTION('',(0.33333333333333,-0.94280904158206,-5.9828685215911E-16));
#241=DIRECTION('',(-3.006286718663E-16,0.,1.));
#242=AXIS2_PLACEMENT_3D('',#239,#241,#240);
#243=CYLINDRICAL_SURFACE('',#242,18.);
#244=CARTESIAN_POINT('',(17.939918703576,1.4694614350396,2.));
#245=VERTEX_POINT('',#244);
#246=CARTESIAN_POINT('',(17.939918703576,1.4694614350396,-8.3266731899437E-17));
#247=VERTEX_POINT('',#246);
#248=CARTESIAN_POINT('',(17.939918703747,1.4694614329555,2.));
#249=DIRECTION('',(0.,1.1102230246252E-16,-1.));
#250=VECTOR('',#249,2.);
#251=LINE('',#248,#250);
#252=EDGE_CURVE('',#245,#247,#251,.T.);
#253=ORIENTED_EDGE('E94',*,*,#252,.F.);
#254=CARTESIAN_POINT('',(7.6973684210526,-16.27115605575,2.));
#255=VERTEX_POINT('',#254);
#256=CARTESIAN_POINT('',(5.3290705182008E-15,-1.7763568394003E-15,2.));
#257=DIRECTION('',(0.99666215018921,0.081636746506875,0.));
#258=DIRECTION('',(-0.,0.,-1.));
#259=AXIS2_PLACEMENT_3D('',#256,#258,#257);
#260=CIRCLE('',#259,18.);
#261=EDGE_CURVE('',#245,#255,#260,.T.);
#262=ORIENTED_EDGE('E2',*,*,#261,.T.);
#263=CARTESIAN_POINT('',(7.6973684210526,-16.27115605575,6.2824362622594E-16));
#264=VERTEX_POINT('',#263);
#265=CARTESIAN_POINT('',(7.6973684210526,-16.27115605575,1.1102230246252E-15));
#266=DIRECTION('',(0.,0.,1.));
#267=VECTOR('',#266,2.);
#268=LINE('',#265,#267);
#269=EDGE_CURVE('',#264,#255,#268,.T.);
#270=ORIENTED_EDGE('E96',*,*,#269,.F.);
#271=CARTESIAN_POINT('',(5.3290705182008E-15,-1.7763568394003E-15,0.));
#272=DIRECTION('',(0.99666215018921,0.081636746506877,0.));
#273=DIRECTION('',(-0.,0.,-1.));
#274=AXIS2_PLACEMENT_3D('',#271,#273,#272);
#275=CIRCLE('',#274,18.);
#276=EDGE_CURVE('',#247,#264,#275,.T.);
#277=ORIENTED_EDGE('E1',*,*,#276,.F.);
#278=EDGE_LOOP('',(#253,#262,#270,#277));
#279=FACE_OUTER_BOUND('',#278,.T.);
#280=ADVANCED_FACE('F44',(#279),#243,.T.);
#281=CARTESIAN_POINT('',(8.8817841970013E-16,3.5527136788005E-15,-0.074328568845496));
#282=DIRECTION('',(1.,-1.9931616701805E-16,5.4740163019713E-17));
#283=DIRECTION('',(-4.1336442381617E-16,6.167905692362E-17,1.));
#284=AXIS2_PLACEMENT_3D('',#281,#283,#282);
#285=CYLINDRICAL_SURFACE('',#284,18.);
#286=CARTESIAN_POINT('',(-17.939918703747,1.4694614329555,-1.7259459913755E-17));
#287=VERTEX_POINT('',#286);
#288=CARTESIAN_POINT('',(-17.939918703747,1.4694614329555,2.));
#289=VERTEX_POINT('',#288);
#290=CARTESIAN_POINT('',(-17.939918703747,1.4694614329555,-4.1633363423443E-17));
#291=DIRECTION('',(-1.7763568394003E-15,1.1102230246252E-16,1.));
#292=VECTOR('',#291,2.);
#293=LINE('',#290,#292);
#294=EDGE_CURVE('',#287,#289,#293,.T.);
#295=ORIENTED_EDGE('E92',*,*,#294,.F.);
#296=CARTESIAN_POINT('',(-7.6973684210526,-16.27115605575,4.2327252813834E-16));
#297=VERTEX_POINT('',#296);
#298=CARTESIAN_POINT('',(-7.105427357601E-15,-3.5527136788005E-15,0.));
#299=DIRECTION('',(-0.99666215020817,0.081636746275306,0.));
#300=DIRECTION('',(0.,-0.,1.));
#301=AXIS2_PLACEMENT_3D('',#298,#300,#299);
#302=CIRCLE('',#301,18.);
#303=EDGE_CURVE('',#287,#297,#302,.T.);
#304=ORIENTED_EDGE('E64',*,*,#303,.T.);
#305=CARTESIAN_POINT('',(-7.6973684210526,-16.27115605575,2.));
#306=VERTEX_POINT('',#305);
#307=CARTESIAN_POINT('',(-7.6973684210526,-16.27115605575,2.));
#308=DIRECTION('',(0.,0.,-1.));
#309=VECTOR('',#308,2.);
#310=LINE('',#307,#309);
#311=EDGE_CURVE('',#306,#297,#310,.T.);
#312=ORIENTED_EDGE('E97',*,*,#311,.F.);
#313=CARTESIAN_POINT('',(-7.105427357601E-15,-3.5527136788005E-15,2.));
#314=DIRECTION('',(-0.99666215020817,0.081636746275306,0.));
#315=DIRECTION('',(0.,-0.,1.));
#316=AXIS2_PLACEMENT_3D('',#313,#315,#314);
#317=CIRCLE('',#316,18.);
#318=EDGE_CURVE('',#289,#306,#317,.T.);
#319=ORIENTED_EDGE('E65',*,*,#318,.F.);
#320=EDGE_LOOP('',(#295,#304,#312,#319));
#321=FACE_OUTER_BOUND('',#320,.T.);
#322=ADVANCED_FACE('F43',(#321),#285,.T.);
#323=CARTESIAN_POINT('',(-4.2632564145606E-14,4.2632564145606E-14,0.));
#324=DIRECTION('',(1.,-5.2632795241489E-16,0.));
#325=DIRECTION('',(-0.,0.,1.));
#326=AXIS2_PLACEMENT_3D('',#323,#325,#324);
#327=PLANE('',#326);
#328=CARTESIAN_POINT('',(-6.174300896974,-14.,-4.9364994947238E-14));
#329=VERTEX_POINT('',#328);
#330=CARTESIAN_POINT('',(6.1743008969743,-14.,7.8669011716253E-13));
#331=VERTEX_POINT('',#330);
#332=CARTESIAN_POINT('',(-6.1743008969738,-14.,0.));
#333=DIRECTION('',(1.,0.,0.));
#334=VECTOR('',#333,12.348601793948);
#335=LINE('',#332,#334);
#336=EDGE_CURVE('',#329,#331,#335,.T.);
#337=ORIENTED_EDGE('E87',*,*,#336,.T.);
#338=CARTESIAN_POINT('',(7.6973684210526,-16.27115605575,1.5743040126492E-12));
#339=DIRECTION('',(-0.55696740632542,0.83053435106029,-2.9653828510115E-16));
#340=VECTOR('',#339,2.7345720894638);
#341=LINE('',#338,#340);
#342=EDGE_CURVE('',#264,#331,#341,.T.);
#343=ORIENTED_EDGE('E106',*,*,#342,.F.);
#344=ORIENTED_EDGE('E106',*,*,#276,.F.);
#345=CARTESIAN_POINT('',(15.211506111488,1.6528985719378,-8.863212522623E-14));
#346=VERTEX_POINT('',#345);
#347=CARTESIAN_POINT('',(17.939918703747,1.4694614329555,-1.0704884444053E-13));
#348=DIRECTION('',(-0.99774754989654,0.067080747427604,3.0676374320813E-16));
#349=VECTOR('',#348,2.7345720693805);
#350=LINE('',#347,#349);
#351=EDGE_CURVE('',#247,#346,#350,.T.);
#352=ORIENTED_EDGE('E105',*,*,#351,.T.);
#353=CARTESIAN_POINT('',(9.0372052044951,12.347101427389,1.1457315897385E-12));
#354=VERTEX_POINT('',#353);
#355=CARTESIAN_POINT('',(15.211506101469,1.6528985726113,0.));
#356=DIRECTION('',(-0.5,0.86602540378444,0.));
#357=VECTOR('',#356,12.348601793948);
#358=LINE('',#355,#357);
#359=EDGE_CURVE('',#346,#354,#358,.T.);
#360=ORIENTED_EDGE('E80',*,*,#359,.T.);
#361=CARTESIAN_POINT('',(10.242550282695,14.801694622795,2.291547066234E-12));
#362=DIRECTION('',(-0.44078014357112,-0.89761509848789,-3.0676374320852E-17));
#363=VECTOR('',#362,2.7345720894638);
#364=LINE('',#361,#363);
#365=EDGE_CURVE('',#222,#354,#364,.T.);
#366=ORIENTED_EDGE('E98',*,*,#365,.F.);
#367=ORIENTED_EDGE('E98',*,*,#234,.T.);
#368=CARTESIAN_POINT('',(-9.0372052044952,12.347101427388,9.5575092220998E-14));
#369=VERTEX_POINT('',#368);
#370=CARTESIAN_POINT('',(-10.242550282695,14.801694622795,5.706155476318E-14));
#371=DIRECTION('',(0.44078014357112,-0.89761509848789,-1.4315641349713E-16));
#372=VECTOR('',#371,2.7345720894638);
#373=LINE('',#370,#372);
#374=EDGE_CURVE('',#205,#369,#373,.T.);
#375=ORIENTED_EDGE('E100',*,*,#374,.T.);
#376=CARTESIAN_POINT('',(-15.211506101469,1.6528985726114,1.7140667294149E-12));
#377=VERTEX_POINT('',#376);
#378=CARTESIAN_POINT('',(-9.0372052044952,12.347101427388,0.));
#379=DIRECTION('',(-0.5,-0.86602540378444,0.));
#380=VECTOR('',#379,12.348601793948);
#381=LINE('',#378,#380);
#382=EDGE_CURVE('',#369,#377,#381,.T.);
#383=ORIENTED_EDGE('E71',*,*,#382,.T.);
#384=CARTESIAN_POINT('',(-17.939918703747,1.4694614329555,3.5068244425579E-12));
#385=DIRECTION('',(0.99774754989654,0.067080747427604,-1.9428370403182E-16));
#386=VECTOR('',#385,2.7345720894638);
#387=LINE('',#384,#386);
#388=EDGE_CURVE('',#287,#377,#387,.T.);
#389=ORIENTED_EDGE('E101',*,*,#388,.F.);
#390=ORIENTED_EDGE('E101',*,*,#303,.T.);
#391=CARTESIAN_POINT('',(-7.6973684210526,-16.27115605575,-1.001615529853E-13));
#392=DIRECTION('',(0.55696740632542,0.83053435106029,4.4992015670525E-16));
#393=VECTOR('',#392,2.7345720894638);
#394=LINE('',#391,#393);
#395=EDGE_CURVE('',#297,#329,#394,.T.);
#396=ORIENTED_EDGE('E103',*,*,#395,.T.);
#397=EDGE_LOOP('',(#337,#343,#344,#352,#360,#366,#367,#375,#383,#389,#390,#396));
#398=FACE_OUTER_BOUND('',#397,.F.);
#399=ORIENTED_EDGE('',*,*,#81,.T.);
#400=EDGE_LOOP('',(#399));
#401=FACE_BOUND('',#400,.F.);
#402=ORIENTED_EDGE('',*,*,#147,.T.);
#403=EDGE_LOOP('',(#402));
#404=FACE_BOUND('',#403,.F.);
#405=ORIENTED_EDGE('',*,*,#114,.T.);
#406=EDGE_LOOP('',(#405));
#407=FACE_BOUND('',#406,.F.);
#408=ORIENTED_EDGE('',*,*,#48,.T.);
#409=EDGE_LOOP('',(#408));
#410=FACE_BOUND('',#409,.F.);
#411=ADVANCED_FACE('F1',(#398,#401,#404,#407,#410),#327,.F.);
#412=CARTESIAN_POINT('',(7.105427357601E-14,-7.105427357601E-15,2.));
#413=DIRECTION('',(1.,0.,0.));
#414=DIRECTION('',(-0.,4.1119371282413E-18,1.));
#415=AXIS2_PLACEMENT_3D('',#412,#414,#413);
#416=PLANE('',#415);
#417=CARTESIAN_POINT('',(-9.0372052044951,12.347101427389,2.0000000000001));
#418=VERTEX_POINT('',#417);
#419=CARTESIAN_POINT('',(-10.242550282695,14.801694622795,2.0000000000001));
#420=DIRECTION('',(0.44078014357112,-0.89761509848789,-1.6239806277593E-16));
#421=VECTOR('',#420,2.7345720894638);
#422=LINE('',#419,#421);
#423=EDGE_CURVE('',#203,#418,#422,.T.);
#424=ORIENTED_EDGE('E108',*,*,#423,.T.);
#425=CARTESIAN_POINT('',(-15.211506101469,1.6528985726114,1.9999999999991));
#426=VERTEX_POINT('',#425);
#427=CARTESIAN_POINT('',(-15.211506101469,1.6528985726115,2.));
#428=DIRECTION('',(0.5,0.86602540378444,0.));
#429=VECTOR('',#428,12.348601793948);
#430=LINE('',#427,#429);
#431=EDGE_CURVE('',#426,#418,#430,.T.);
#432=ORIENTED_EDGE('E74',*,*,#431,.F.);
#433=CARTESIAN_POINT('',(-17.939918703747,1.4694614329554,1.9999999999982));
#434=DIRECTION('',(0.99774754989654,0.067080747427605,5.0343399460541E-15));
#435=VECTOR('',#434,2.7345720894638);
#436=LINE('',#433,#435);
#437=EDGE_CURVE('',#289,#426,#436,.T.);
#438=ORIENTED_EDGE('E109',*,*,#437,.F.);
#439=ORIENTED_EDGE('E109',*,*,#318,.T.);
#440=CARTESIAN_POINT('',(-6.1743008969741,-14.,2.));
#441=VERTEX_POINT('',#440);
#442=CARTESIAN_POINT('',(-7.6973684210526,-16.27115605575,1.9999999999999));
#443=DIRECTION('',(0.55696740632542,0.83053435106029,3.2479612555187E-16));
#444=VECTOR('',#443,2.7345720894638);
#445=LINE('',#442,#444);
#446=EDGE_CURVE('',#306,#441,#445,.T.);
#447=ORIENTED_EDGE('E110',*,*,#446,.T.);
#448=CARTESIAN_POINT('',(6.1743008969741,-14.,1.9999999999997));
#449=VERTEX_POINT('',#448);
#450=CARTESIAN_POINT('',(6.1743008969741,-14.,2.));
#451=DIRECTION('',(-1.,0.,0.));
#452=VECTOR('',#451,12.348601793948);
#453=LINE('',#450,#452);
#454=EDGE_CURVE('',#449,#441,#453,.T.);
#455=ORIENTED_EDGE('E90',*,*,#454,.F.);
#456=CARTESIAN_POINT('',(7.6973684210526,-16.27115605575,1.9999999999993));
#457=DIRECTION('',(-0.55696740632542,0.83053435106029,2.1111748160872E-15));
#458=VECTOR('',#457,2.7345720894638);
#459=LINE('',#456,#458);
#460=EDGE_CURVE('',#255,#449,#459,.T.);
#461=ORIENTED_EDGE('E113',*,*,#460,.F.);
#462=ORIENTED_EDGE('E113',*,*,#261,.F.);
#463=CARTESIAN_POINT('',(15.211506111488,1.6528985719379,1.9999999999999));
#464=VERTEX_POINT('',#463);
#465=CARTESIAN_POINT('',(17.939918703747,1.4694614329555,1.9999999999999));
#466=DIRECTION('',(-0.99774754989654,0.067080747427604,3.2479612793725E-16));
#467=VECTOR('',#466,2.7345720693804);
#468=LINE('',#465,#467);
#469=EDGE_CURVE('',#245,#464,#468,.T.);
#470=ORIENTED_EDGE('E111',*,*,#469,.T.);
#471=CARTESIAN_POINT('',(9.0372052044952,12.347101427389,2.0000000000011));
#472=VERTEX_POINT('',#471);
#473=CARTESIAN_POINT('',(9.0372052044952,12.347101427389,2.));
#474=DIRECTION('',(0.5,-0.86602540378444,0.));
#475=VECTOR('',#474,12.348601793948);
#476=LINE('',#473,#475);
#477=EDGE_CURVE('',#472,#464,#476,.T.);
#478=ORIENTED_EDGE('E83',*,*,#477,.F.);
#479=CARTESIAN_POINT('',(10.242550282695,14.801694622795,2.0000000000023));
#480=DIRECTION('',(-0.44078014357112,-0.89761509848789,0.));
#481=VECTOR('',#480,2.7345720894637);
#482=LINE('',#479,#481);
#483=EDGE_CURVE('',#213,#472,#482,.T.);
#484=ORIENTED_EDGE('E107',*,*,#483,.F.);
#485=ORIENTED_EDGE('E107',*,*,#219,.T.);
#486=EDGE_LOOP('',(#424,#432,#438,#439,#447,#455,#461,#462,#470,#478,#484,#485));
#487=FACE_OUTER_BOUND('',#486,.T.);
#488=ORIENTED_EDGE('',*,*,#179,.F.);
#489=EDGE_LOOP('',(#488));
#490=FACE_BOUND('',#489,.T.);
#491=ORIENTED_EDGE('',*,*,#139,.F.);
#492=EDGE_LOOP('',(#491));
#493=FACE_BOUND('',#492,.T.);
#494=ORIENTED_EDGE('',*,*,#106,.F.);
#495=EDGE_LOOP('',(#494));
#496=FACE_BOUND('',#495,.T.);
#497=ORIENTED_EDGE('',*,*,#40,.F.);
#498=EDGE_LOOP('',(#497));
#499=FACE_BOUND('',#498,.T.);
#500=ADVANCED_FACE('F2',(#487,#490,#493,#496,#499),#416,.T.);
#501=CARTESIAN_POINT('',(12.124355652982,7.,2.));
#502=DIRECTION('',(0.5,-0.86602540378444,0.));
#503=DIRECTION('',(-0.86602540378444,-0.5,2.2098179923381E-15));
#504=AXIS2_PLACEMENT_3D('',#501,#503,#502);
#505=PLANE('',#504);
#506=CARTESIAN_POINT('',(9.0372052044951,12.347101427389,2.0000000000001));
#507=DIRECTION('',(0.,0.,-1.));
#508=VECTOR('',#507,2.);
#509=LINE('',#506,#508);
#510=EDGE_CURVE('',#472,#354,#509,.T.);
#511=ORIENTED_EDGE('E114',*,*,#510,.T.);
#512=ORIENTED_EDGE('E114',*,*,#359,.F.);
#513=CARTESIAN_POINT('',(15.211506101469,1.6528985726114,-7.105427357601E-14));
#514=DIRECTION('',(0.,0.,1.));
#515=VECTOR('',#514,2.);
#516=LINE('',#513,#515);
#517=EDGE_CURVE('',#346,#464,#516,.T.);
#518=ORIENTED_EDGE('E115',*,*,#517,.T.);
#519=ORIENTED_EDGE('E115',*,*,#477,.F.);
#520=EDGE_LOOP('',(#511,#512,#518,#519));
#521=FACE_OUTER_BOUND('',#520,.F.);
#522=ADVANCED_FACE('F47',(#521),#505,.F.);
#523=CARTESIAN_POINT('',(-12.124355652982,6.9999999999999,2.));
#524=DIRECTION('',(0.5,0.86602540378444,0.));
#525=DIRECTION('',(0.86602540378444,-0.5,-1.1842378929335E-15));
#526=AXIS2_PLACEMENT_3D('',#523,#525,#524);
#527=PLANE('',#526);
#528=CARTESIAN_POINT('',(-9.0372052044951,12.347101427389,1.9184653865523E-13));
#529=DIRECTION('',(0.,8.8817841970015E-16,1.));
#530=VECTOR('',#529,1.9999999999999);
#531=LINE('',#528,#530);
#532=EDGE_CURVE('',#369,#418,#531,.T.);
#533=ORIENTED_EDGE('E99',*,*,#532,.T.);
#534=ORIENTED_EDGE('E99',*,*,#431,.F.);
#535=CARTESIAN_POINT('',(-15.211506101469,1.6528985726114,2.));
#536=DIRECTION('',(8.8817841970011E-16,-1.1102230246251E-16,-1.));
#537=VECTOR('',#536,2.);
#538=LINE('',#535,#537);
#539=EDGE_CURVE('',#426,#377,#538,.T.);
#540=ORIENTED_EDGE('E112',*,*,#539,.T.);
#541=ORIENTED_EDGE('E112',*,*,#382,.F.);
#542=EDGE_LOOP('',(#533,#534,#540,#541));
#543=FACE_OUTER_BOUND('',#542,.F.);
#544=ADVANCED_FACE('F50',(#543),#527,.F.);
#545=CARTESIAN_POINT('',(1.1703093496731E-13,-14.,2.));
#546=DIRECTION('',(-1.,0.,1.1146990818984E-15));
#547=DIRECTION('',(-3.3001722300055E-31,1.,-2.9605947323337E-16));
#548=AXIS2_PLACEMENT_3D('',#545,#547,#546);
#549=PLANE('',#548);
#550=CARTESIAN_POINT('',(6.1743008969741,-14.,2.0000000000001));
#551=DIRECTION('',(-4.4408920985005E-16,0.,-1.));
#552=VECTOR('',#551,2.0000000000001);
#553=LINE('',#550,#552);
#554=EDGE_CURVE('',#449,#331,#553,.T.);
#555=ORIENTED_EDGE('E104',*,*,#554,.T.);
#556=ORIENTED_EDGE('E104',*,*,#336,.F.);
#557=CARTESIAN_POINT('',(-6.1743008969741,-14.,-7.105427357601E-14));
#558=DIRECTION('',(0.,-8.8817841970009E-16,1.));
#559=VECTOR('',#558,2.0000000000001);
#560=LINE('',#557,#559);
#561=EDGE_CURVE('',#329,#441,#560,.T.);
#562=ORIENTED_EDGE('E102',*,*,#561,.T.);
#563=ORIENTED_EDGE('E102',*,*,#454,.F.);
#564=EDGE_LOOP('',(#555,#556,#562,#563));
#565=FACE_OUTER_BOUND('',#564,.F.);
#566=ADVANCED_FACE('F53',(#565),#549,.F.);
#567=CARTESIAN_POINT('',(-16.419591693456,1.5716763391162,0.99999999999999));
#568=DIRECTION('',(0.99774754989654,0.067080747427604,1.1657726740735E-15));
#569=DIRECTION('',(0.067080747427604,-0.99774754989654,0.));
#570=AXIS2_PLACEMENT_3D('',#567,#569,#568);
#571=PLANE('',#570);
#572=ORIENTED_EDGE('',*,*,#294,.F.);
#573=ORIENTED_EDGE('',*,*,#388,.T.);
#574=ORIENTED_EDGE('',*,*,#539,.F.);
#575=ORIENTED_EDGE('',*,*,#437,.F.);
#576=EDGE_LOOP('',(#572,#573,#574,#575));
#577=FACE_OUTER_BOUND('',#576,.F.);
#578=ADVANCED_FACE('F55',(#577),#571,.F.);
#579=CARTESIAN_POINT('',(-9.5709074829294,13.433945356743,1.));
#580=DIRECTION('',(0.44078014357112,-0.89761509848789,-1.1657726740735E-15));
#581=DIRECTION('',(0.89761509848789,0.44078014357112,5.8304905624603E-15));
#582=AXIS2_PLACEMENT_3D('',#579,#581,#580);
#583=PLANE('',#582);
#584=ORIENTED_EDGE('',*,*,#210,.F.);
#585=ORIENTED_EDGE('',*,*,#423,.T.);
#586=ORIENTED_EDGE('',*,*,#532,.F.);
#587=ORIENTED_EDGE('',*,*,#374,.F.);
#588=EDGE_LOOP('',(#584,#585,#586,#587));
#589=FACE_OUTER_BOUND('',#588,.F.);
#590=ADVANCED_FACE('F56',(#589),#583,.F.);
#591=CARTESIAN_POINT('',(16.419591693456,1.5716763391162,0.78716428442273));
#592=DIRECTION('',(-0.99774754989654,0.067080747427604,0.));
#593=DIRECTION('',(-0.067080747427604,-0.99774754989654,-0.));
#594=AXIS2_PLACEMENT_3D('',#591,#593,#592);
#595=PLANE('',#594);
#596=ORIENTED_EDGE('',*,*,#252,.F.);
#597=ORIENTED_EDGE('',*,*,#469,.T.);
#598=ORIENTED_EDGE('',*,*,#517,.F.);
#599=ORIENTED_EDGE('',*,*,#351,.F.);
#600=EDGE_LOOP('',(#596,#597,#598,#599));
#601=FACE_OUTER_BOUND('',#600,.F.);
#602=ADVANCED_FACE('F57',(#601),#595,.F.);
#603=CARTESIAN_POINT('',(9.5709074829294,13.433945356742,1.));
#604=DIRECTION('',(-0.44078014357112,-0.89761509848789,-1.1657726740735E-15));
#605=DIRECTION('',(-0.89761509848789,0.44078014357112,-8.8519196491523E-15));
#606=AXIS2_PLACEMENT_3D('',#603,#605,#604);
#607=PLANE('',#606);
#608=ORIENTED_EDGE('',*,*,#227,.F.);
#609=ORIENTED_EDGE('',*,*,#365,.T.);
#610=ORIENTED_EDGE('',*,*,#510,.F.);
#611=ORIENTED_EDGE('',*,*,#483,.F.);
#612=EDGE_LOOP('',(#608,#609,#610,#611));
#613=FACE_OUTER_BOUND('',#612,.F.);
#614=ADVANCED_FACE('F58',(#613),#607,.F.);
#615=CARTESIAN_POINT('',(6.8486842105263,-15.005621695859,0.59712678668295));
#616=DIRECTION('',(-0.55696740632542,0.83053435106029,0.));
#617=DIRECTION('',(0.83053435106029,0.55696740632542,-3.9949190223775E-15));
#618=AXIS2_PLACEMENT_3D('',#615,#617,#616);
#619=PLANE('',#618);
#620=ORIENTED_EDGE('',*,*,#269,.F.);
#621=ORIENTED_EDGE('',*,*,#342,.T.);
#622=ORIENTED_EDGE('',*,*,#554,.F.);
#623=ORIENTED_EDGE('',*,*,#460,.F.);
#624=EDGE_LOOP('',(#620,#621,#622,#623));
#625=FACE_OUTER_BOUND('',#624,.F.);
#626=ADVANCED_FACE('F59',(#625),#619,.F.);
#627=CARTESIAN_POINT('',(-6.8486842105263,-15.005621695859,1.));
#628=DIRECTION('',(0.55696740632541,0.83053435106029,0.));
#629=DIRECTION('',(-0.83053435106029,0.55696740632541,5.4930136557691E-15));
#630=AXIS2_PLACEMENT_3D('',#627,#629,#628);
#631=PLANE('',#630);
#632=ORIENTED_EDGE('',*,*,#311,.F.);
#633=ORIENTED_EDGE('',*,*,#446,.T.);
#634=ORIENTED_EDGE('',*,*,#561,.F.);
#635=ORIENTED_EDGE('',*,*,#395,.F.);
#636=EDGE_LOOP('',(#632,#633,#634,#635));
#637=FACE_OUTER_BOUND('',#636,.F.);
#638=ADVANCED_FACE('F60',(#637),#631,.F.);
#639=CLOSED_SHELL('',(#52,#85,#118,#151,#184,#196,#238,#280,#322,#411,#500,#522,#544,#566,#578,#590,#602,#614,#626,#638));
#640=COLOUR_RGB('',0.745098,0.901961,0.960784);
#641=FILL_AREA_STYLE_COLOUR('',#640);
#642=FILL_AREA_STYLE('',(#641));
#643=SURFACE_STYLE_FILL_AREA(#642);
#644=SURFACE_SIDE_STYLE('',(#643));
#645=SURFACE_STYLE_USAGE(.BOTH.,#644);
#646=PRESENTATION_STYLE_ASSIGNMENT((#645));
#647=OVER_RIDING_STYLED_ITEM('',(#646),#52,#639);
#648=OVER_RIDING_STYLED_ITEM('',(#646),#85,#639);
#649=OVER_RIDING_STYLED_ITEM('',(#646),#118,#639);
#650=OVER_RIDING_STYLED_ITEM('',(#646),#151,#639);
#651=OVER_RIDING_STYLED_ITEM('',(#646),#184,#639);
#652=OVER_RIDING_STYLED_ITEM('',(#646),#196,#639);
#653=OVER_RIDING_STYLED_ITEM('',(#646),#238,#639);
#654=OVER_RIDING_STYLED_ITEM('',(#646),#280,#639);
#655=OVER_RIDING_STYLED_ITEM('',(#646),#322,#639);
#656=OVER_RIDING_STYLED_ITEM('',(#646),#411,#639);
#657=OVER_RIDING_STYLED_ITEM('',(#646),#500,#639);
#658=OVER_RIDING_STYLED_ITEM('',(#646),#522,#639);
#659=OVER_RIDING_STYLED_ITEM('',(#646),#544,#639);
#660=OVER_RIDING_STYLED_ITEM('',(#646),#566,#639);
#661=OVER_RIDING_STYLED_ITEM('',(#646),#578,#639);
#662=OVER_RIDING_STYLED_ITEM('',(#646),#590,#639);
#663=OVER_RIDING_STYLED_ITEM('',(#646),#602,#639);
#664=OVER_RIDING_STYLED_ITEM('',(#646),#614,#639);
#665=OVER_RIDING_STYLED_ITEM('',(#646),#626,#639);
#666=OVER_RIDING_STYLED_ITEM('',(#646),#638,#639);
#667=MANIFOLD_SOLID_BREP('S1',#639);
#668=ADVANCED_BREP_SHAPE_REPRESENTATION('',(#667), #5);
#669=SHAPE_REPRESENTATION_RELATIONSHIP('','',#18,#668);
#670=PRESENTATION_LAYER_ASSIGNMENT('图层0000','',(#667));
#671=MECHANICAL_DESIGN_GEOMETRIC_PRESENTATION_REPRESENTATION('',(#647,#648,#649,#650,#651,#652,#653,#654,#655,#656,#657,#658,#659,#660,#661,#662,#663,#664,#665,#666),#5);
ENDSEC;
END-ISO-10303-21;
