ISO-10303-21;
HEADER;
FILE_DESCRIPTION(
  ('This file contains a STEP AP42 implementation'
    ,'as created by ZW3D STEP Interface translator.'
    ,'')
  ,'2;1'
  );
FILE_NAME(
  '爪子方案1中固定片.stp'
  ,'26 916.125040',
  (''),
  ('ZWCAD Software Co.'),
  'Version 1.0',
  'ZW3D to STEP translator',
  ''
  );
FILE_SCHEMA(('AUTOMOTIVE_DESIGN { 1 0 10303 214 1 1 1 1 }'));
ENDSEC;

DATA;

/**File Base Unit**/
#1=(LENGTH_UNIT()NAMED_UNIT(*)SI_UNIT(.MILLI.,.METRE.));
#2=(NAMED_UNIT(*)PLANE_ANGLE_UNIT()SI_UNIT($,.RADIAN.));
#3=(NAMED_UNIT(*)SI_UNIT($,.STERADIAN.)SOLID_ANGLE_UNIT());
#4=UNCERTAINTY_MEASURE_WITH_UNIT(LENGTH_MEASURE(0.01),#1,'DISTANCE_ACCURACY_VALUE','Maximum Tolerance applied to model');
#5=(GEOMETRIC_REPRESENTATION_CONTEXT(3)GLOBAL_UNCERTAINTY_ASSIGNED_CONTEXT((#4))GLOBAL_UNIT_ASSIGNED_CONTEXT((#1,#2,#3))REPRESENTATION_CONTEXT('STEP 203','TOP_LEVEL_ASSEMBLY_PART'));

/**product_definition_shape**/
#6=APPLICATION_CONTEXT('mechanical parts and assemblies' );
#7=DESIGN_CONTEXT('NONE',#6,'design');
#8=MECHANICAL_CONTEXT('NONE',#6,'mechanical');
#9=PRODUCT('0','Part','',(#8));
#10=PRODUCT_DEFINITION_FORMATION_WITH_SPECIFIED_SOURCE('ANY','',#9,.NOT_KNOWN.);
#11=PRODUCT_DEFINITION('UNKNOWN','',#10,#7);
#12=PRODUCT_DEFINITION_SHAPE('NONE','NONE',#11);
#13=PRODUCT_RELATED_PRODUCT_CATEGORY('detail','',(#9));
/**geometry information**/
#14=CARTESIAN_POINT('',(0.,0.,0.));
#15=DIRECTION('',(0.,0.,1.));
#16=DIRECTION('',(1.,0.,0.));
#17=AXIS2_PLACEMENT_3D('',#14,#15,#16);
#18=SHAPE_REPRESENTATION('none',(#17),#5);
#19=SHAPE_DEFINITION_REPRESENTATION(#12,#18);
#20=CARTESIAN_POINT('',(5.,3.2869204384209E-32,6.5));
#21=DIRECTION('',(7.4014868308344E-17,1.,0.));
#22=DIRECTION('',(1.,-7.4014868308344E-17,8.8817841970013E-17));
#23=AXIS2_PLACEMENT_3D('',#20,#22,#21);
#24=PLANE('',#23);
#25=CARTESIAN_POINT('',(5.,-6.,1.5));
#26=VERTEX_POINT('',#25);
#27=CARTESIAN_POINT('',(5.,6.,1.5));
#28=VERTEX_POINT('',#27);
#29=CARTESIAN_POINT('',(5.,-6.,1.5));
#30=DIRECTION('',(0.,1.,0.));
#31=VECTOR('',#30,12.);
#32=LINE('',#29,#31);
#33=EDGE_CURVE('',#26,#28,#32,.T.);
#34=ORIENTED_EDGE('E5',*,*,#33,.T.);
#35=CARTESIAN_POINT('',(5.,6.,2.));
#36=VERTEX_POINT('',#35);
#37=CARTESIAN_POINT('',(5.,6.,1.5));
#38=DIRECTION('',(0.,-1.7763568394003E-15,1.));
#39=VECTOR('',#38,0.5);
#40=LINE('',#37,#39);
#41=EDGE_CURVE('',#28,#36,#40,.T.);
#42=ORIENTED_EDGE('E13',*,*,#41,.T.);
#43=CARTESIAN_POINT('',(5.,-6.,2.));
#44=VERTEX_POINT('',#43);
#45=CARTESIAN_POINT('',(5.,-6.,2.));
#46=DIRECTION('',(7.4014868308344E-17,1.,0.));
#47=VECTOR('',#46,12.);
#48=LINE('',#45,#47);
#49=EDGE_CURVE('',#44,#36,#48,.T.);
#50=ORIENTED_EDGE('E19',*,*,#49,.F.);
#51=CARTESIAN_POINT('',(5.,-6.,1.5));
#52=DIRECTION('',(0.,1.7763568394003E-15,1.));
#53=VECTOR('',#52,0.5);
#54=LINE('',#51,#53);
#55=EDGE_CURVE('',#26,#44,#54,.T.);
#56=ORIENTED_EDGE('E12',*,*,#55,.F.);
#57=EDGE_LOOP('',(#34,#42,#50,#56));
#58=FACE_OUTER_BOUND('',#57,.F.);
#59=ADVANCED_FACE('F13',(#58),#24,.F.);
#60=CARTESIAN_POINT('',(0.,-6.,6.5));
#61=DIRECTION('',(1.,0.,0.));
#62=DIRECTION('',(0.,-1.,0.));
#63=AXIS2_PLACEMENT_3D('',#60,#62,#61);
#64=PLANE('',#63);
#65=CARTESIAN_POINT('',(-5.,-6.,1.5));
#66=VERTEX_POINT('',#65);
#67=CARTESIAN_POINT('',(-5.,-6.,1.5));
#68=DIRECTION('',(1.,0.,0.));
#69=VECTOR('',#68,10.);
#70=LINE('',#67,#69);
#71=EDGE_CURVE('',#66,#26,#70,.T.);
#72=ORIENTED_EDGE('E4',*,*,#71,.T.);
#73=ORIENTED_EDGE('E4',*,*,#55,.T.);
#74=CARTESIAN_POINT('',(-5.,-6.,2.));
#75=VERTEX_POINT('',#74);
#76=CARTESIAN_POINT('',(-5.,-6.,2.));
#77=DIRECTION('',(1.,0.,0.));
#78=VECTOR('',#77,10.);
#79=LINE('',#76,#78);
#80=EDGE_CURVE('',#75,#44,#79,.T.);
#81=ORIENTED_EDGE('E21',*,*,#80,.F.);
#82=CARTESIAN_POINT('',(-5.,-6.,1.5));
#83=DIRECTION('',(0.,1.7763568394003E-15,1.));
#84=VECTOR('',#83,0.5);
#85=LINE('',#82,#84);
#86=EDGE_CURVE('',#66,#75,#85,.T.);
#87=ORIENTED_EDGE('E15',*,*,#86,.F.);
#88=EDGE_LOOP('',(#72,#73,#81,#87));
#89=FACE_OUTER_BOUND('',#88,.F.);
#90=ADVANCED_FACE('F14',(#89),#64,.F.);
#91=CARTESIAN_POINT('',(-5.,-9.8607613152626E-32,6.5));
#92=DIRECTION('',(-2.2204460492503E-16,-1.,0.));
#93=DIRECTION('',(-1.,2.2204460492503E-16,8.8817841970013E-17));
#94=AXIS2_PLACEMENT_3D('',#91,#93,#92);
#95=PLANE('',#94);
#96=CARTESIAN_POINT('',(-5.,6.,1.5));
#97=VERTEX_POINT('',#96);
#98=CARTESIAN_POINT('',(-5.,6.,1.5));
#99=DIRECTION('',(0.,-1.,0.));
#100=VECTOR('',#99,12.);
#101=LINE('',#98,#100);
#102=EDGE_CURVE('',#97,#66,#101,.T.);
#103=ORIENTED_EDGE('E7',*,*,#102,.T.);
#104=ORIENTED_EDGE('E7',*,*,#86,.T.);
#105=CARTESIAN_POINT('',(-5.,6.,2.));
#106=VERTEX_POINT('',#105);
#107=CARTESIAN_POINT('',(-5.,6.,2.));
#108=DIRECTION('',(-2.2204460492503E-16,-1.,0.));
#109=VECTOR('',#108,12.);
#110=LINE('',#107,#109);
#111=EDGE_CURVE('',#106,#75,#110,.T.);
#112=ORIENTED_EDGE('E22',*,*,#111,.F.);
#113=CARTESIAN_POINT('',(-5.,6.,1.5));
#114=DIRECTION('',(0.,-1.7763568394003E-15,1.));
#115=VECTOR('',#114,0.5);
#116=LINE('',#113,#115);
#117=EDGE_CURVE('',#97,#106,#116,.T.);
#118=ORIENTED_EDGE('E14',*,*,#117,.F.);
#119=EDGE_LOOP('',(#103,#104,#112,#118));
#120=FACE_OUTER_BOUND('',#119,.F.);
#121=ADVANCED_FACE('F15',(#120),#95,.F.);
#122=CARTESIAN_POINT('',(0.,6.,6.5));
#123=DIRECTION('',(-1.,1.7763568394003E-16,0.));
#124=DIRECTION('',(1.7763568394003E-16,1.,-0.));
#125=AXIS2_PLACEMENT_3D('',#122,#124,#123);
#126=PLANE('',#125);
#127=CARTESIAN_POINT('',(5.,6.,1.5));
#128=DIRECTION('',(-1.,0.,0.));
#129=VECTOR('',#128,10.);
#130=LINE('',#127,#129);
#131=EDGE_CURVE('',#28,#97,#130,.T.);
#132=ORIENTED_EDGE('E6',*,*,#131,.T.);
#133=ORIENTED_EDGE('E6',*,*,#117,.T.);
#134=CARTESIAN_POINT('',(5.,6.,2.));
#135=DIRECTION('',(-1.,1.7763568394003E-16,0.));
#136=VECTOR('',#135,10.);
#137=LINE('',#134,#136);
#138=EDGE_CURVE('',#36,#106,#137,.T.);
#139=ORIENTED_EDGE('E20',*,*,#138,.F.);
#140=ORIENTED_EDGE('E20',*,*,#41,.F.);
#141=EDGE_LOOP('',(#132,#133,#139,#140));
#142=FACE_OUTER_BOUND('',#141,.F.);
#143=ADVANCED_FACE('F16',(#142),#126,.F.);
#144=CARTESIAN_POINT('',(3.3306690738755E-16,-4.4408920985006E-16,-1.));
#145=DIRECTION('',(1.,6.2694322756011E-17,-5.0464682937507E-17));
#146=DIRECTION('',(1.1102230246252E-17,6.1232339957368E-17,1.));
#147=AXIS2_PLACEMENT_3D('',#144,#146,#145);
#148=CYLINDRICAL_SURFACE('',#147,2.2);
#149=CARTESIAN_POINT('',(2.2,-2.4492935982947E-16,-1.6653345369377E-16));
#150=VERTEX_POINT('',#149);
#151=CARTESIAN_POINT('',(2.2,-1.5308084989342E-16,1.5));
#152=VERTEX_POINT('',#151);
#153=CARTESIAN_POINT('',(2.2,-2.4492935982947E-16,-2.2204460492503E-16));
#154=DIRECTION('',(0.,6.1232339957368E-17,1.));
#155=VECTOR('',#154,1.5);
#156=LINE('',#153,#155);
#157=EDGE_CURVE('',#150,#152,#156,.T.);
#158=ORIENTED_EDGE('E18',*,*,#157,.T.);
#159=CARTESIAN_POINT('',(0.,-1.5308084989342E-16,1.5));
#160=DIRECTION('',(1.,-1.1460079007924E-32,-1.0705175854662E-16));
#161=DIRECTION('',(1.0705175854662E-16,1.0705175854662E-16,1.));
#162=AXIS2_PLACEMENT_3D('',#159,#161,#160);
#163=CIRCLE('',#162,2.2);
#164=EDGE_CURVE('',#152,#152,#163,.T.);
#165=ORIENTED_EDGE('E24',*,*,#164,.F.);
#166=ORIENTED_EDGE('E24',*,*,#157,.F.);
#167=CARTESIAN_POINT('',(0.,-2.4492935982947E-16,-6.5035359056654E-17));
#168=DIRECTION('',(1.,4.369419346723E-34,-2.0903156093574E-17));
#169=DIRECTION('',(-2.0903156093574E-17,2.0903156093574E-17,-1.));
#170=AXIS2_PLACEMENT_3D('',#167,#169,#168);
#171=CIRCLE('',#170,2.2);
#172=EDGE_CURVE('',#150,#150,#171,.T.);
#173=ORIENTED_EDGE('E23',*,*,#172,.F.);
#174=EDGE_LOOP('',(#158,#165,#166,#173));
#175=FACE_OUTER_BOUND('',#174,.F.);
#176=ADVANCED_FACE('F18',(#175),#148,.F.);
#177=CARTESIAN_POINT('',(0.,0.,1.5));
#178=DIRECTION('',(1.,0.,0.));
#179=DIRECTION('',(0.,0.,1.));
#180=AXIS2_PLACEMENT_3D('',#177,#179,#178);
#181=PLANE('',#180);
#182=ORIENTED_EDGE('',*,*,#71,.T.);
#183=ORIENTED_EDGE('',*,*,#33,.T.);
#184=ORIENTED_EDGE('',*,*,#131,.T.);
#185=ORIENTED_EDGE('',*,*,#102,.T.);
#186=EDGE_LOOP('',(#182,#183,#184,#185));
#187=FACE_OUTER_BOUND('',#186,.T.);
#188=CARTESIAN_POINT('',(0.85,4.5,1.5));
#189=VERTEX_POINT('',#188);
#190=CARTESIAN_POINT('',(-2.2204460492503E-15,4.5,1.5));
#191=DIRECTION('',(1.,-3.2325432972901E-16,4.6179189961287E-16));
#192=DIRECTION('',(-4.6179189961287E-16,-4.6179189961287E-16,1.));
#193=AXIS2_PLACEMENT_3D('',#190,#192,#191);
#194=CIRCLE('',#193,0.85);
#195=EDGE_CURVE('',#189,#189,#194,.T.);
#196=ORIENTED_EDGE('E32',*,*,#195,.F.);
#197=EDGE_LOOP('',(#196));
#198=FACE_BOUND('',#197,.T.);
#199=CARTESIAN_POINT('',(0.85,-4.5,1.5));
#200=VERTEX_POINT('',#199);
#201=CARTESIAN_POINT('',(1.6653345369377E-15,-4.5,1.5));
#202=DIRECTION('',(1.,-3.2325432972901E-16,4.6179189961288E-16));
#203=DIRECTION('',(-4.6179189961288E-16,-4.6179189961288E-16,1.));
#204=AXIS2_PLACEMENT_3D('',#201,#203,#202);
#205=CIRCLE('',#204,0.85);
#206=EDGE_CURVE('',#200,#200,#205,.T.);
#207=ORIENTED_EDGE('E31',*,*,#206,.F.);
#208=EDGE_LOOP('',(#207));
#209=FACE_BOUND('',#208,.T.);
#210=ORIENTED_EDGE('',*,*,#164,.F.);
#211=EDGE_LOOP('',(#210));
#212=FACE_BOUND('',#211,.T.);
#213=ADVANCED_FACE('F17',(#187,#198,#209,#212),#181,.T.);
#214=CARTESIAN_POINT('',(8.3266726846887E-16,4.5,-1.));
#215=DIRECTION('',(1.,0.,-1.3061447348531E-16));
#216=DIRECTION('',(-9.251858538543E-18,0.,1.));
#217=AXIS2_PLACEMENT_3D('',#214,#216,#215);
#218=CYLINDRICAL_SURFACE('',#217,0.85);
#219=CARTESIAN_POINT('',(0.85,4.5,-1.1102230246252E-16));
#220=VERTEX_POINT('',#219);
#221=CARTESIAN_POINT('',(0.85,4.5,-1.1102230246252E-16));
#222=DIRECTION('',(-7.4014868308344E-17,0.,1.));
#223=VECTOR('',#222,1.5);
#224=LINE('',#221,#223);
#225=EDGE_CURVE('',#220,#189,#224,.T.);
#226=ORIENTED_EDGE('E27',*,*,#225,.F.);
#227=CARTESIAN_POINT('',(5.5511151231258E-16,4.5,-2.2204460492503E-16));
#228=DIRECTION('',(1.,9.2358379922575E-17,1.3061447348531E-16));
#229=DIRECTION('',(1.3061447348531E-16,-1.3061447348531E-16,-1.));
#230=AXIS2_PLACEMENT_3D('',#227,#229,#228);
#231=CIRCLE('',#230,0.85);
#232=EDGE_CURVE('',#220,#220,#231,.T.);
#233=ORIENTED_EDGE('E34',*,*,#232,.F.);
#234=ORIENTED_EDGE('E34',*,*,#225,.T.);
#235=ORIENTED_EDGE('E34',*,*,#195,.F.);
#236=EDGE_LOOP('',(#226,#233,#234,#235));
#237=FACE_OUTER_BOUND('',#236,.F.);
#238=ADVANCED_FACE('F25',(#237),#218,.F.);
#239=CARTESIAN_POINT('',(1.942890293094E-16,-4.5,-1.));
#240=DIRECTION('',(1.,0.,-1.3061447348531E-16));
#241=DIRECTION('',(4.6259292692715E-18,0.,1.));
#242=AXIS2_PLACEMENT_3D('',#239,#241,#240);
#243=CYLINDRICAL_SURFACE('',#242,0.85);
#244=CARTESIAN_POINT('',(0.85,-4.5,-1.1102230246252E-16));
#245=VERTEX_POINT('',#244);
#246=CARTESIAN_POINT('',(0.85,-4.5,-1.1102230246252E-16));
#247=DIRECTION('',(-7.4014868308344E-17,0.,1.));
#248=VECTOR('',#247,1.5);
#249=LINE('',#246,#248);
#250=EDGE_CURVE('',#245,#200,#249,.T.);
#251=ORIENTED_EDGE('E30',*,*,#250,.F.);
#252=CARTESIAN_POINT('',(-8.8817841970013E-16,-4.5,-2.2204460492503E-16));
#253=DIRECTION('',(1.,9.2358379922575E-17,1.3061447348531E-16));
#254=DIRECTION('',(1.3061447348531E-16,-1.3061447348531E-16,-1.));
#255=AXIS2_PLACEMENT_3D('',#252,#254,#253);
#256=CIRCLE('',#255,0.85);
#257=EDGE_CURVE('',#245,#245,#256,.T.);
#258=ORIENTED_EDGE('E33',*,*,#257,.F.);
#259=ORIENTED_EDGE('E33',*,*,#250,.T.);
#260=ORIENTED_EDGE('E33',*,*,#206,.F.);
#261=EDGE_LOOP('',(#251,#258,#259,#260));
#262=FACE_OUTER_BOUND('',#261,.F.);
#263=ADVANCED_FACE('F26',(#262),#243,.F.);
#264=CARTESIAN_POINT('',(15.,-3.1086244689504E-15,-1.));
#265=DIRECTION('',(1.,1.828079655674E-15,-6.9388939039072E-17));
#266=DIRECTION('',(0.,6.1232339957368E-17,1.));
#267=AXIS2_PLACEMENT_3D('',#264,#266,#265);
#268=CYLINDRICAL_SURFACE('',#267,1.6);
#269=CARTESIAN_POINT('',(16.6,-1.2246467991474E-16,-1.6653345369377E-16));
#270=VERTEX_POINT('',#269);
#271=CARTESIAN_POINT('',(16.6,0.,2.));
#272=VERTEX_POINT('',#271);
#273=CARTESIAN_POINT('',(16.6,-1.2246467991474E-16,-2.2204460492503E-16));
#274=DIRECTION('',(0.,6.1232339957368E-17,1.));
#275=VECTOR('',#274,2.);
#276=LINE('',#273,#275);
#277=EDGE_CURVE('',#270,#272,#276,.T.);
#278=ORIENTED_EDGE('E37',*,*,#277,.F.);
#279=CARTESIAN_POINT('',(15.,2.3896832539793E-15,-2.2204460492503E-16));
#280=DIRECTION('',(1.,-1.5700924586838E-15,6.9388939039072E-17));
#281=DIRECTION('',(6.9388939039072E-17,-6.9388939039072E-17,-1.));
#282=AXIS2_PLACEMENT_3D('',#279,#281,#280);
#283=CIRCLE('',#282,1.6);
#284=EDGE_CURVE('',#270,#270,#283,.T.);
#285=ORIENTED_EDGE('E49',*,*,#284,.F.);
#286=ORIENTED_EDGE('E49',*,*,#277,.T.);
#287=CARTESIAN_POINT('',(15.,-2.512147933894E-15,2.));
#288=DIRECTION('',(1.,1.5700924586838E-15,1.9626155733547E-16));
#289=DIRECTION('',(-1.9626155733547E-16,-1.9626155733547E-16,1.));
#290=AXIS2_PLACEMENT_3D('',#287,#289,#288);
#291=CIRCLE('',#290,1.6);
#292=EDGE_CURVE('',#272,#272,#291,.T.);
#293=ORIENTED_EDGE('E48',*,*,#292,.F.);
#294=EDGE_LOOP('',(#278,#285,#286,#293));
#295=FACE_OUTER_BOUND('',#294,.F.);
#296=ADVANCED_FACE('F36',(#295),#268,.F.);
#297=CARTESIAN_POINT('',(-7.5,12.990381056767,-1.));
#298=DIRECTION('',(-0.5,0.86602540378444,0.));
#299=DIRECTION('',(0.,0.,1.));
#300=AXIS2_PLACEMENT_3D('',#297,#299,#298);
#301=CYLINDRICAL_SURFACE('',#300,1.6);
#302=CARTESIAN_POINT('',(-8.3,14.376021702822,-1.8558670849945E-16));
#303=VERTEX_POINT('',#302);
#304=CARTESIAN_POINT('',(-8.3,14.376021702822,2.));
#305=VERTEX_POINT('',#304);
#306=CARTESIAN_POINT('',(-8.3,14.376021702822,-2.2204460492503E-16));
#307=DIRECTION('',(0.,0.,1.));
#308=VECTOR('',#307,2.);
#309=LINE('',#306,#308);
#310=EDGE_CURVE('',#303,#305,#309,.T.);
#311=ORIENTED_EDGE('E40',*,*,#310,.F.);
#312=CARTESIAN_POINT('',(-7.5,12.990381056767,-2.2204460492503E-16));
#313=DIRECTION('',(-0.5,0.86602540378444,6.9388939039072E-17));
#314=DIRECTION('',(2.539811442995E-17,9.4787053469022E-17,-1.));
#315=AXIS2_PLACEMENT_3D('',#312,#314,#313);
#316=CIRCLE('',#315,1.6);
#317=EDGE_CURVE('',#303,#303,#316,.T.);
#318=ORIENTED_EDGE('E47',*,*,#317,.F.);
#319=ORIENTED_EDGE('E47',*,*,#310,.T.);
#320=CARTESIAN_POINT('',(-7.5,12.990381056767,2.));
#321=DIRECTION('',(-0.5,0.86602540378444,1.9626155733547E-16));
#322=DIRECTION('',(2.6809827310655E-16,-7.1836715771079E-17,1.));
#323=AXIS2_PLACEMENT_3D('',#320,#322,#321);
#324=CIRCLE('',#323,1.6);
#325=EDGE_CURVE('',#305,#305,#324,.T.);
#326=ORIENTED_EDGE('E46',*,*,#325,.F.);
#327=EDGE_LOOP('',(#311,#318,#319,#326));
#328=FACE_OUTER_BOUND('',#327,.F.);
#329=ADVANCED_FACE('F37',(#328),#301,.F.);
#330=CARTESIAN_POINT('',(-7.5,-12.990381056767,-1.));
#331=DIRECTION('',(-0.5,-0.86602540378444,0.));
#332=DIRECTION('',(0.,0.,1.));
#333=AXIS2_PLACEMENT_3D('',#330,#332,#331);
#334=CYLINDRICAL_SURFACE('',#333,1.6);
#335=CARTESIAN_POINT('',(-8.3,-14.376021702822,-1.6653345369377E-16));
#336=VERTEX_POINT('',#335);
#337=CARTESIAN_POINT('',(-8.3,-14.376021702822,2.));
#338=VERTEX_POINT('',#337);
#339=CARTESIAN_POINT('',(-8.3,-14.376021702822,-2.2204460492503E-16));
#340=DIRECTION('',(0.,0.,1.));
#341=VECTOR('',#340,2.);
#342=LINE('',#339,#341);
#343=EDGE_CURVE('',#336,#338,#342,.T.);
#344=ORIENTED_EDGE('E43',*,*,#343,.F.);
#345=CARTESIAN_POINT('',(-7.5,-12.990381056767,-2.2204460492503E-16));
#346=DIRECTION('',(-0.5,-0.86602540378444,6.9388939039072E-17));
#347=DIRECTION('',(-9.4787053469023E-17,-2.539811442995E-17,-1.));
#348=AXIS2_PLACEMENT_3D('',#345,#347,#346);
#349=CIRCLE('',#348,1.6);
#350=EDGE_CURVE('',#336,#336,#349,.T.);
#351=ORIENTED_EDGE('E45',*,*,#350,.F.);
#352=ORIENTED_EDGE('E45',*,*,#343,.T.);
#353=CARTESIAN_POINT('',(-7.5,-12.990381056767,2.));
#354=DIRECTION('',(-0.5,-0.86602540378444,1.9626155733547E-16));
#355=DIRECTION('',(-7.1836715771079E-17,2.6809827310655E-16,1.));
#356=AXIS2_PLACEMENT_3D('',#353,#355,#354);
#357=CIRCLE('',#356,1.6);
#358=EDGE_CURVE('',#338,#338,#357,.T.);
#359=ORIENTED_EDGE('E44',*,*,#358,.F.);
#360=EDGE_LOOP('',(#344,#351,#352,#359));
#361=FACE_OUTER_BOUND('',#360,.F.);
#362=ADVANCED_FACE('F38',(#361),#334,.F.);
#363=CARTESIAN_POINT('',(-6.3948846218409E-14,2.2204460492503E-14,-0.11663602730407));
#364=DIRECTION('',(0.74070599840643,-0.67182931159986,1.7732728865541E-17));
#365=DIRECTION('',(0.,-3.9770274197783E-16,1.));
#366=AXIS2_PLACEMENT_3D('',#363,#365,#364);
#367=CYLINDRICAL_SURFACE('',#366,18.);
#368=CARTESIAN_POINT('',(14.484019158168,10.687057079749,2.));
#369=VERTEX_POINT('',#368);
#370=CARTESIAN_POINT('',(14.484019158168,10.687057079749,-2.3952575863714E-16));
#371=VERTEX_POINT('',#370);
#372=CARTESIAN_POINT('',(14.484019158168,10.687057079749,2.));
#373=DIRECTION('',(0.,0.,-1.));
#374=VECTOR('',#373,2.);
#375=LINE('',#372,#374);
#376=EDGE_CURVE('',#369,#371,#375,.T.);
#377=ORIENTED_EDGE('E115',*,*,#376,.F.);
#378=CARTESIAN_POINT('',(14.484019158168,-10.687057079749,2.));
#379=VERTEX_POINT('',#378);
#380=CARTESIAN_POINT('',(-3.5527136788005E-15,-3.9440724301282E-16,2.));
#381=DIRECTION('',(0.80466773100936,0.59372539331938,-1.2335811384724E-17));
#382=DIRECTION('',(-2.3787305739644E-17,-9.1807630090954E-18,-1.));
#383=AXIS2_PLACEMENT_3D('',#380,#382,#381);
#384=CIRCLE('',#383,18.);
#385=EDGE_CURVE('',#369,#379,#384,.T.);
#386=ORIENTED_EDGE('E2',*,*,#385,.T.);
#387=CARTESIAN_POINT('',(14.484019158168,-10.687057079749,6.2967476864401E-16));
#388=VERTEX_POINT('',#387);
#389=CARTESIAN_POINT('',(14.484019158168,-10.687057079749,1.1796119636642E-15));
#390=DIRECTION('',(0.,0.,1.));
#391=VECTOR('',#390,2.);
#392=LINE('',#389,#391);
#393=EDGE_CURVE('',#388,#379,#392,.T.);
#394=ORIENTED_EDGE('E116',*,*,#393,.F.);
#395=CARTESIAN_POINT('',(-3.5527136788005E-15,-3.9440724301282E-16,0.));
#396=DIRECTION('',(0.80466773100936,0.59372539331938,0.));
#397=DIRECTION('',(0.,-0.,-1.));
#398=AXIS2_PLACEMENT_3D('',#395,#397,#396);
#399=CIRCLE('',#398,18.);
#400=EDGE_CURVE('',#371,#388,#399,.T.);
#401=ORIENTED_EDGE('E1',*,*,#400,.F.);
#402=EDGE_LOOP('',(#377,#386,#394,#401));
#403=FACE_OUTER_BOUND('',#402,.T.);
#404=ADVANCED_FACE('F58',(#403),#367,.T.);
#405=CARTESIAN_POINT('',(2.6645352591004E-15,3.5527136788005E-15,-0.11663602730406));
#406=DIRECTION('',(1.,-1.9946113835908E-16,-1.0485439677015E-15));
#407=DIRECTION('',(3.9770274197783E-16,6.167905692362E-17,1.));
#408=AXIS2_PLACEMENT_3D('',#405,#407,#406);
#409=CYLINDRICAL_SURFACE('',#408,18.);
#410=CARTESIAN_POINT('',(2.0132533436726,17.887057079749,-5.4123372450476E-16));
#411=VERTEX_POINT('',#410);
#412=CARTESIAN_POINT('',(2.0132533436726,17.887057079749,2.));
#413=VERTEX_POINT('',#412);
#414=CARTESIAN_POINT('',(2.0132533436726,17.887057079749,-1.0824674490095E-15));
#415=DIRECTION('',(0.,0.,1.));
#416=VECTOR('',#415,2.);
#417=LINE('',#414,#416);
#418=EDGE_CURVE('',#411,#413,#417,.T.);
#419=ORIENTED_EDGE('E114',*,*,#418,.F.);
#420=CARTESIAN_POINT('',(-16.497272501841,7.2,-6.48483454446E-16));
#421=VERTEX_POINT('',#420);
#422=CARTESIAN_POINT('',(0.,5.3290705182008E-15,0.));
#423=DIRECTION('',(0.11184740798181,0.99372539331938,0.));
#424=DIRECTION('',(0.,0.,1.));
#425=AXIS2_PLACEMENT_3D('',#422,#424,#423);
#426=CIRCLE('',#425,18.);
#427=EDGE_CURVE('',#411,#421,#426,.T.);
#428=ORIENTED_EDGE('E86',*,*,#427,.T.);
#429=CARTESIAN_POINT('',(-16.497272501841,7.2,2.));
#430=VERTEX_POINT('',#429);
#431=CARTESIAN_POINT('',(-16.497272501841,7.2,2.));
#432=DIRECTION('',(0.,0.,-1.));
#433=VECTOR('',#432,2.);
#434=LINE('',#431,#433);
#435=EDGE_CURVE('',#430,#421,#434,.T.);
#436=ORIENTED_EDGE('E118',*,*,#435,.F.);
#437=CARTESIAN_POINT('',(0.,5.3290705182008E-15,2.));
#438=DIRECTION('',(0.11184740798181,0.99372539331938,-1.2335811384724E-17));
#439=DIRECTION('',(0.,0.,1.));
#440=AXIS2_PLACEMENT_3D('',#437,#439,#438);
#441=CIRCLE('',#440,18.);
#442=EDGE_CURVE('',#413,#430,#441,.T.);
#443=ORIENTED_EDGE('E87',*,*,#442,.F.);
#444=EDGE_LOOP('',(#419,#428,#436,#443));
#445=FACE_OUTER_BOUND('',#444,.T.);
#446=ADVANCED_FACE('F59',(#445),#409,.T.);
#447=CARTESIAN_POINT('',(-1.7763568394003E-15,-3.5527136788005E-15,-0.11663602730408));
#448=DIRECTION('',(1.,1.9528482595208E-16,5.3198186596622E-17));
#449=DIRECTION('',(7.9540548395566E-16,6.167905692362E-17,1.));
#450=AXIS2_PLACEMENT_3D('',#447,#449,#448);
#451=CYLINDRICAL_SURFACE('',#450,18.);
#452=CARTESIAN_POINT('',(2.0132533436726,-17.887057079749,2.));
#453=VERTEX_POINT('',#452);
#454=CARTESIAN_POINT('',(2.0132533436726,-17.887057079749,7.086622303258E-16));
#455=VERTEX_POINT('',#454);
#456=CARTESIAN_POINT('',(2.0132533436726,-17.887057079749,2.));
#457=DIRECTION('',(0.,0.,-1.));
#458=VECTOR('',#457,2.);
#459=LINE('',#456,#458);
#460=EDGE_CURVE('',#453,#455,#459,.T.);
#461=ORIENTED_EDGE('E117',*,*,#460,.F.);
#462=CARTESIAN_POINT('',(-16.497272501841,-7.2,2.));
#463=VERTEX_POINT('',#462);
#464=CARTESIAN_POINT('',(-7.105427357601E-15,-3.5527136788005E-15,2.));
#465=DIRECTION('',(-0.91651513899117,-0.4,0.));
#466=DIRECTION('',(0.,-0.,1.));
#467=AXIS2_PLACEMENT_3D('',#464,#466,#465);
#468=CIRCLE('',#467,18.);
#469=EDGE_CURVE('',#463,#453,#468,.T.);
#470=ORIENTED_EDGE('E89',*,*,#469,.F.);
#471=CARTESIAN_POINT('',(-16.497272501841,-7.2,2.4980018054066E-16));
#472=VERTEX_POINT('',#471);
#473=CARTESIAN_POINT('',(-16.497272501841,-7.2,4.9960036108132E-16));
#474=DIRECTION('',(0.,0.,1.));
#475=VECTOR('',#474,2.);
#476=LINE('',#473,#475);
#477=EDGE_CURVE('',#472,#463,#476,.T.);
#478=ORIENTED_EDGE('E119',*,*,#477,.F.);
#479=CARTESIAN_POINT('',(-7.105427357601E-15,-3.5527136788005E-15,0.));
#480=DIRECTION('',(-0.91651513899117,-0.4,0.));
#481=DIRECTION('',(0.,-0.,1.));
#482=AXIS2_PLACEMENT_3D('',#479,#481,#480);
#483=CIRCLE('',#482,18.);
#484=EDGE_CURVE('',#472,#455,#483,.T.);
#485=ORIENTED_EDGE('E88',*,*,#484,.T.);
#486=EDGE_LOOP('',(#461,#470,#478,#485));
#487=FACE_OUTER_BOUND('',#486,.T.);
#488=ADVANCED_FACE('F57',(#487),#451,.T.);
#489=CARTESIAN_POINT('',(8.5265128291212E-14,5.6843418860808E-14,2.));
#490=DIRECTION('',(1.,-1.0526559048298E-15,0.));
#491=DIRECTION('',(-8.656909796664E-33,-8.2238742564826E-18,1.));
#492=AXIS2_PLACEMENT_3D('',#489,#491,#490);
#493=PLANE('',#492);
#494=CARTESIAN_POINT('',(-14.,-5.6559763126943,2.0000000000002));
#495=VERTEX_POINT('',#494);
#496=CARTESIAN_POINT('',(-16.497272501841,-7.2,2.0000000000007));
#497=DIRECTION('',(0.85055568664054,0.52588499115629,-3.0250811838532E-16));
#498=VECTOR('',#497,2.9360482106758);
#499=LINE('',#496,#498);
#500=EDGE_CURVE('',#463,#495,#499,.T.);
#501=ORIENTED_EDGE('E132',*,*,#500,.F.);
#502=ORIENTED_EDGE('E132',*,*,#469,.T.);
#503=CARTESIAN_POINT('',(2.1017808300037,-14.952343809329,2.));
#504=VERTEX_POINT('',#503);
#505=CARTESIAN_POINT('',(2.0132533436726,-17.887057079749,2.));
#506=DIRECTION('',(0.030151918490026,0.99954532754216,0.));
#507=VECTOR('',#506,2.9360482106757);
#508=LINE('',#505,#507);
#509=EDGE_CURVE('',#453,#504,#508,.T.);
#510=ORIENTED_EDGE('E134',*,*,#509,.T.);
#511=CARTESIAN_POINT('',(11.898219169996,-9.2963674966349,2.));
#512=VERTEX_POINT('',#511);
#513=CARTESIAN_POINT('',(11.898219169996,-9.296367496635,2.));
#514=DIRECTION('',(-0.86602540378444,-0.5,0.));
#515=VECTOR('',#514,11.311952625389);
#516=LINE('',#513,#515);
#517=EDGE_CURVE('',#512,#504,#516,.T.);
#518=ORIENTED_EDGE('E101',*,*,#517,.F.);
#519=CARTESIAN_POINT('',(14.484019158168,-10.687057079749,1.9999999999999));
#520=DIRECTION('',(-0.88070760513056,0.47366033638588,3.0250811838533E-16));
#521=VECTOR('',#520,2.9360482106757);
#522=LINE('',#519,#521);
#523=EDGE_CURVE('',#379,#512,#522,.T.);
#524=ORIENTED_EDGE('E136',*,*,#523,.F.);
#525=ORIENTED_EDGE('E136',*,*,#385,.F.);
#526=CARTESIAN_POINT('',(11.898219169996,9.2963674966348,1.9999999999998));
#527=VERTEX_POINT('',#526);
#528=CARTESIAN_POINT('',(14.484019158168,10.687057079749,2.0000000000001));
#529=DIRECTION('',(-0.88070760513057,-0.47366033638588,-3.0250811838531E-16));
#530=VECTOR('',#529,2.936048210676);
#531=LINE('',#528,#530);
#532=EDGE_CURVE('',#369,#527,#531,.T.);
#533=ORIENTED_EDGE('E135',*,*,#532,.T.);
#534=CARTESIAN_POINT('',(2.1017808300036,14.952343809329,1.9999999999996));
#535=VERTEX_POINT('',#534);
#536=CARTESIAN_POINT('',(2.1017808300034,14.952343809329,2.));
#537=DIRECTION('',(0.86602540378444,-0.5,0.));
#538=VECTOR('',#537,11.311952625389);
#539=LINE('',#536,#538);
#540=EDGE_CURVE('',#535,#527,#539,.T.);
#541=ORIENTED_EDGE('E93',*,*,#540,.F.);
#542=CARTESIAN_POINT('',(2.0132533436726,17.887057079749,1.9999999999993));
#543=DIRECTION('',(0.030151918490028,-0.99954532754216,1.9663027695044E-15));
#544=VECTOR('',#543,2.936048210676);
#545=LINE('',#542,#544);
#546=EDGE_CURVE('',#413,#535,#545,.T.);
#547=ORIENTED_EDGE('E127',*,*,#546,.F.);
#548=ORIENTED_EDGE('E127',*,*,#442,.T.);
#549=CARTESIAN_POINT('',(-14.,5.6559763126943,2.));
#550=VERTEX_POINT('',#549);
#551=CARTESIAN_POINT('',(-16.497272501841,7.2,2.));
#552=DIRECTION('',(0.85055568664053,-0.52588499115629,0.));
#553=VECTOR('',#552,2.9360482106757);
#554=LINE('',#551,#553);
#555=EDGE_CURVE('',#430,#550,#554,.T.);
#556=ORIENTED_EDGE('E129',*,*,#555,.T.);
#557=CARTESIAN_POINT('',(-14.,-5.6559763126946,2.));
#558=DIRECTION('',(0.,1.,0.));
#559=VECTOR('',#558,11.311952625389);
#560=LINE('',#557,#559);
#561=EDGE_CURVE('',#495,#550,#560,.T.);
#562=ORIENTED_EDGE('E108',*,*,#561,.F.);
#563=EDGE_LOOP('',(#501,#502,#510,#518,#524,#525,#533,#541,#547,#548,#556,#562));
#564=FACE_OUTER_BOUND('',#563,.T.);
#565=ORIENTED_EDGE('',*,*,#138,.F.);
#566=ORIENTED_EDGE('',*,*,#49,.F.);
#567=ORIENTED_EDGE('',*,*,#80,.F.);
#568=ORIENTED_EDGE('',*,*,#111,.F.);
#569=EDGE_LOOP('',(#565,#566,#567,#568));
#570=FACE_BOUND('',#569,.T.);
#571=ORIENTED_EDGE('',*,*,#358,.F.);
#572=EDGE_LOOP('',(#571));
#573=FACE_BOUND('',#572,.T.);
#574=ORIENTED_EDGE('',*,*,#292,.F.);
#575=EDGE_LOOP('',(#574));
#576=FACE_BOUND('',#575,.T.);
#577=ORIENTED_EDGE('',*,*,#325,.F.);
#578=EDGE_LOOP('',(#577));
#579=FACE_BOUND('',#578,.T.);
#580=ADVANCED_FACE('F2',(#564,#570,#573,#576,#579),#493,.T.);
#581=CARTESIAN_POINT('',(2.5579538487364E-13,2.8421709430404E-14,0.));
#582=DIRECTION('',(1.,-1.0526559048298E-15,0.));
#583=DIRECTION('',(-0.,-0.,1.));
#584=AXIS2_PLACEMENT_3D('',#581,#583,#582);
#585=PLANE('',#584);
#586=CARTESIAN_POINT('',(2.1017808300039,-14.952343809329,-5.1514348342607E-14));
#587=VERTEX_POINT('',#586);
#588=CARTESIAN_POINT('',(2.0132533436726,-17.887057079749,3.5527136788005E-15));
#589=DIRECTION('',(0.030151918490027,0.99954532754216,0.));
#590=VECTOR('',#589,2.9360482106759);
#591=LINE('',#588,#590);
#592=EDGE_CURVE('',#455,#587,#591,.T.);
#593=ORIENTED_EDGE('E123',*,*,#592,.T.);
#594=CARTESIAN_POINT('',(11.898219169996,-9.296367496635,1.4578868773818E-14));
#595=VERTEX_POINT('',#594);
#596=CARTESIAN_POINT('',(2.1017808300041,-14.952343809329,0.));
#597=DIRECTION('',(0.86602540378444,0.5,0.));
#598=VECTOR('',#597,11.311952625388);
#599=LINE('',#596,#598);
#600=EDGE_CURVE('',#587,#595,#599,.T.);
#601=ORIENTED_EDGE('E104',*,*,#600,.T.);
#602=CARTESIAN_POINT('',(14.484019158169,-10.687057079749,-1.1368683772162E-13));
#603=DIRECTION('',(-0.88070760513056,0.47366033638588,2.8698757267072E-16));
#604=VECTOR('',#603,2.9360482106759);
#605=LINE('',#602,#604);
#606=EDGE_CURVE('',#388,#595,#605,.T.);
#607=ORIENTED_EDGE('E126',*,*,#606,.F.);
#608=ORIENTED_EDGE('E126',*,*,#400,.F.);
#609=CARTESIAN_POINT('',(11.898219169996,9.2963674966347,3.8849680152614E-14));
#610=VERTEX_POINT('',#609);
#611=CARTESIAN_POINT('',(14.484019158168,10.687057079749,7.8596355643191E-14));
#612=DIRECTION('',(-0.88070760513057,-0.47366033638588,-2.7015312715966E-16));
#613=VECTOR('',#612,2.9360482106759);
#614=LINE('',#611,#613);
#615=EDGE_CURVE('',#371,#610,#614,.T.);
#616=ORIENTED_EDGE('E124',*,*,#615,.T.);
#617=CARTESIAN_POINT('',(2.101780830004,14.952343809329,-3.3235455709407E-13));
#618=VERTEX_POINT('',#617);
#619=CARTESIAN_POINT('',(11.898219169997,9.2963674966346,0.));
#620=DIRECTION('',(-0.86602540378444,0.5,0.));
#621=VECTOR('',#620,11.311952625388);
#622=LINE('',#619,#621);
#623=EDGE_CURVE('',#610,#618,#622,.T.);
#624=ORIENTED_EDGE('E96',*,*,#623,.T.);
#625=CARTESIAN_POINT('',(2.0132533436727,17.887057079749,-7.389644451905E-13));
#626=DIRECTION('',(0.030151918490028,-0.99954532754216,1.793672329192E-15));
#627=VECTOR('',#626,2.9360482106759);
#628=LINE('',#625,#627);
#629=EDGE_CURVE('',#411,#618,#628,.T.);
#630=ORIENTED_EDGE('E120',*,*,#629,.F.);
#631=ORIENTED_EDGE('E120',*,*,#427,.T.);
#632=CARTESIAN_POINT('',(-14.,5.6559763126946,-8.8895656472349E-15));
#633=VERTEX_POINT('',#632);
#634=CARTESIAN_POINT('',(-16.497272501841,7.2,-7.105427357601E-15));
#635=DIRECTION('',(0.85055568664054,-0.52588499115629,0.));
#636=VECTOR('',#635,2.9360482106756);
#637=LINE('',#634,#636);
#638=EDGE_CURVE('',#421,#633,#637,.T.);
#639=ORIENTED_EDGE('E121',*,*,#638,.T.);
#640=CARTESIAN_POINT('',(-14.,-5.6559763126943,-1.6937292708669E-13));
#641=VERTEX_POINT('',#640);
#642=CARTESIAN_POINT('',(-14.,5.6559763126949,0.));
#643=DIRECTION('',(0.,-1.,0.));
#644=VECTOR('',#643,11.311952625389);
#645=LINE('',#642,#644);
#646=EDGE_CURVE('',#633,#641,#645,.T.);
#647=ORIENTED_EDGE('E111',*,*,#646,.T.);
#648=CARTESIAN_POINT('',(-16.497272501841,-7.2000000000001,-3.4106051316485E-13));
#649=DIRECTION('',(0.85055568664053,0.52588499115629,8.6096271801214E-16));
#650=VECTOR('',#649,2.9360482106757);
#651=LINE('',#648,#650);
#652=EDGE_CURVE('',#472,#641,#651,.T.);
#653=ORIENTED_EDGE('E122',*,*,#652,.F.);
#654=ORIENTED_EDGE('E122',*,*,#484,.T.);
#655=EDGE_LOOP('',(#593,#601,#607,#608,#616,#624,#630,#631,#639,#647,#653,#654));
#656=FACE_OUTER_BOUND('',#655,.F.);
#657=ORIENTED_EDGE('',*,*,#257,.T.);
#658=EDGE_LOOP('',(#657));
#659=FACE_BOUND('',#658,.F.);
#660=ORIENTED_EDGE('',*,*,#350,.T.);
#661=EDGE_LOOP('',(#660));
#662=FACE_BOUND('',#661,.F.);
#663=ORIENTED_EDGE('',*,*,#172,.T.);
#664=EDGE_LOOP('',(#663));
#665=FACE_BOUND('',#664,.F.);
#666=ORIENTED_EDGE('',*,*,#284,.T.);
#667=EDGE_LOOP('',(#666));
#668=FACE_BOUND('',#667,.F.);
#669=ORIENTED_EDGE('',*,*,#317,.T.);
#670=EDGE_LOOP('',(#669));
#671=FACE_BOUND('',#670,.F.);
#672=ORIENTED_EDGE('',*,*,#232,.T.);
#673=EDGE_LOOP('',(#672));
#674=FACE_BOUND('',#673,.F.);
#675=ADVANCED_FACE('F1',(#656,#659,#662,#665,#668,#671,#674),#585,.F.);
#676=CARTESIAN_POINT('',(7.0000000000001,12.124355652982,1.9999999999999));
#677=DIRECTION('',(0.86602540378444,-0.5,2.4336532187274E-15));
#678=DIRECTION('',(-0.5,-0.86602540378444,4.736951571734E-15));
#679=AXIS2_PLACEMENT_3D('',#676,#678,#677);
#680=PLANE('',#679);
#681=CARTESIAN_POINT('',(11.898219169996,9.2963674966349,-9.2370555648813E-14));
#682=DIRECTION('',(-8.8817841970026E-16,0.,1.));
#683=VECTOR('',#682,1.9999999999997);
#684=LINE('',#681,#683);
#685=EDGE_CURVE('',#610,#527,#684,.T.);
#686=ORIENTED_EDGE('E137',*,*,#685,.T.);
#687=ORIENTED_EDGE('E137',*,*,#540,.F.);
#688=CARTESIAN_POINT('',(2.1017808300037,14.952343809329,2.));
#689=DIRECTION('',(0.,0.,-1.));
#690=VECTOR('',#689,2.0000000000001);
#691=LINE('',#688,#690);
#692=EDGE_CURVE('',#535,#618,#691,.T.);
#693=ORIENTED_EDGE('E133',*,*,#692,.T.);
#694=ORIENTED_EDGE('E133',*,*,#623,.F.);
#695=EDGE_LOOP('',(#686,#687,#693,#694));
#696=FACE_OUTER_BOUND('',#695,.F.);
#697=ADVANCED_FACE('F61',(#696),#680,.F.);
#698=CARTESIAN_POINT('',(-14.,-4.9542459204625E-14,2.0000000000001));
#699=DIRECTION('',(0.,1.,-2.4336532187275E-15));
#700=DIRECTION('',(1.,-7.2050608996916E-31,-2.9605947323337E-16));
#701=AXIS2_PLACEMENT_3D('',#698,#700,#699);
#702=PLANE('',#701);
#703=CARTESIAN_POINT('',(-14.,5.6559763126944,-1.7763568394003E-14));
#704=DIRECTION('',(0.,0.,1.));
#705=VECTOR('',#704,2.0000000000001);
#706=LINE('',#703,#705);
#707=EDGE_CURVE('',#633,#550,#706,.T.);
#708=ORIENTED_EDGE('E130',*,*,#707,.T.);
#709=ORIENTED_EDGE('E130',*,*,#561,.F.);
#710=CARTESIAN_POINT('',(-14.,-5.6559763126943,1.9999999999997));
#711=DIRECTION('',(0.,0.,-1.));
#712=VECTOR('',#711,2.);
#713=LINE('',#710,#712);
#714=EDGE_CURVE('',#495,#641,#713,.T.);
#715=ORIENTED_EDGE('E128',*,*,#714,.T.);
#716=ORIENTED_EDGE('E128',*,*,#646,.F.);
#717=EDGE_LOOP('',(#708,#709,#715,#716));
#718=FACE_OUTER_BOUND('',#717,.F.);
#719=ADVANCED_FACE('F64',(#718),#702,.F.);
#720=CARTESIAN_POINT('',(7.,-12.124355652982,1.9999999999999));
#721=DIRECTION('',(-0.86602540378444,-0.5,-4.8673064374551E-15));
#722=DIRECTION('',(-0.5,0.86602540378444,2.368475785867E-15));
#723=AXIS2_PLACEMENT_3D('',#720,#722,#721);
#724=PLANE('',#723);
#725=CARTESIAN_POINT('',(11.898219169996,-9.296367496635,2.0000000000001));
#726=DIRECTION('',(0.,0.,-1.));
#727=VECTOR('',#726,2.);
#728=LINE('',#725,#727);
#729=EDGE_CURVE('',#512,#595,#728,.T.);
#730=ORIENTED_EDGE('E131',*,*,#729,.T.);
#731=ORIENTED_EDGE('E131',*,*,#600,.F.);
#732=CARTESIAN_POINT('',(2.1017808300036,-14.952343809329,-1.0302869668521E-13));
#733=DIRECTION('',(0.,0.,1.));
#734=VECTOR('',#733,2.0000000000001);
#735=LINE('',#732,#734);
#736=EDGE_CURVE('',#587,#504,#735,.T.);
#737=ORIENTED_EDGE('E125',*,*,#736,.T.);
#738=ORIENTED_EDGE('E125',*,*,#517,.F.);
#739=EDGE_LOOP('',(#730,#731,#737,#738));
#740=FACE_OUTER_BOUND('',#739,.F.);
#741=ADVANCED_FACE('F67',(#740),#724,.F.);
#742=CARTESIAN_POINT('',(2.061988582646,16.27146898977,0.99999999999999));
#743=DIRECTION('',(0.030151918490029,-0.99954532754216,1.0990110597393E-15));
#744=DIRECTION('',(-0.99954532754216,-0.030151918490028,0.));
#745=AXIS2_PLACEMENT_3D('',#742,#744,#743);
#746=PLANE('',#745);
#747=ORIENTED_EDGE('',*,*,#418,.F.);
#748=ORIENTED_EDGE('',*,*,#629,.T.);
#749=ORIENTED_EDGE('',*,*,#692,.F.);
#750=ORIENTED_EDGE('',*,*,#546,.F.);
#751=EDGE_LOOP('',(#747,#748,#749,#750));
#752=FACE_OUTER_BOUND('',#751,.F.);
#753=ADVANCED_FACE('F70',(#752),#746,.F.);
#754=CARTESIAN_POINT('',(13.060511210708,9.9214689897697,1.));
#755=DIRECTION('',(-0.88070760513057,-0.47366033638587,1.0990110597393E-15));
#756=DIRECTION('',(0.47366033638587,-0.88070760513057,7.8646694456201E-15));
#757=AXIS2_PLACEMENT_3D('',#754,#756,#755);
#758=PLANE('',#757);
#759=ORIENTED_EDGE('',*,*,#376,.F.);
#760=ORIENTED_EDGE('',*,*,#532,.T.);
#761=ORIENTED_EDGE('',*,*,#685,.F.);
#762=ORIENTED_EDGE('',*,*,#615,.F.);
#763=EDGE_LOOP('',(#759,#760,#761,#762));
#764=FACE_OUTER_BOUND('',#763,.F.);
#765=ADVANCED_FACE('F69',(#764),#758,.F.);
#766=CARTESIAN_POINT('',(13.060511210708,-9.9214689897697,1.));
#767=DIRECTION('',(-0.88070760513057,0.47366033638588,0.));
#768=DIRECTION('',(0.47366033638588,0.88070760513057,5.6041572710585E-15));
#769=AXIS2_PLACEMENT_3D('',#766,#768,#767);
#770=PLANE('',#769);
#771=ORIENTED_EDGE('',*,*,#393,.F.);
#772=ORIENTED_EDGE('',*,*,#606,.T.);
#773=ORIENTED_EDGE('',*,*,#729,.F.);
#774=ORIENTED_EDGE('',*,*,#523,.F.);
#775=EDGE_LOOP('',(#771,#772,#773,#774));
#776=FACE_OUTER_BOUND('',#775,.F.);
#777=ADVANCED_FACE('F71',(#776),#770,.F.);
#778=CARTESIAN_POINT('',(2.061988582646,-16.27146898977,1.));
#779=DIRECTION('',(0.030151918490028,0.99954532754216,0.));
#780=DIRECTION('',(-0.99954532754216,0.030151918490028,0.));
#781=AXIS2_PLACEMENT_3D('',#778,#780,#779);
#782=PLANE('',#781);
#783=ORIENTED_EDGE('',*,*,#460,.F.);
#784=ORIENTED_EDGE('',*,*,#509,.T.);
#785=ORIENTED_EDGE('',*,*,#736,.F.);
#786=ORIENTED_EDGE('',*,*,#592,.F.);
#787=EDGE_LOOP('',(#783,#784,#785,#786));
#788=FACE_OUTER_BOUND('',#787,.F.);
#789=ADVANCED_FACE('F72',(#788),#782,.F.);
#790=CARTESIAN_POINT('',(-15.122499793354,6.35,1.));
#791=DIRECTION('',(0.85055568664053,-0.52588499115629,0.));
#792=DIRECTION('',(0.52588499115629,0.85055568664053,-1.0148049863453E-15));
#793=AXIS2_PLACEMENT_3D('',#790,#792,#791);
#794=PLANE('',#793);
#795=ORIENTED_EDGE('',*,*,#435,.F.);
#796=ORIENTED_EDGE('',*,*,#555,.T.);
#797=ORIENTED_EDGE('',*,*,#707,.F.);
#798=ORIENTED_EDGE('',*,*,#638,.F.);
#799=EDGE_LOOP('',(#795,#796,#797,#798));
#800=FACE_OUTER_BOUND('',#799,.F.);
#801=ADVANCED_FACE('F73',(#800),#794,.F.);
#802=CARTESIAN_POINT('',(-15.122499793354,-6.35,0.99999999999999));
#803=DIRECTION('',(0.85055568664054,0.52588499115628,-1.0990110597393E-15));
#804=DIRECTION('',(0.52588499115628,-0.85055568664054,0.));
#805=AXIS2_PLACEMENT_3D('',#802,#804,#803);
#806=PLANE('',#805);
#807=ORIENTED_EDGE('',*,*,#477,.F.);
#808=ORIENTED_EDGE('',*,*,#652,.T.);
#809=ORIENTED_EDGE('',*,*,#714,.F.);
#810=ORIENTED_EDGE('',*,*,#500,.F.);
#811=EDGE_LOOP('',(#807,#808,#809,#810));
#812=FACE_OUTER_BOUND('',#811,.F.);
#813=ADVANCED_FACE('F74',(#812),#806,.F.);
#814=CLOSED_SHELL('',(#59,#90,#121,#143,#176,#213,#238,#263,#296,#329,#362,#404,#446,#488,#580,#675,#697,#719,#741,#753,#765,#777,#789,#801,#813));
#815=COLOUR_RGB('',0.745098,0.901961,0.960784);
#816=FILL_AREA_STYLE_COLOUR('',#815);
#817=FILL_AREA_STYLE('',(#816));
#818=SURFACE_STYLE_FILL_AREA(#817);
#819=SURFACE_SIDE_STYLE('',(#818));
#820=SURFACE_STYLE_USAGE(.BOTH.,#819);
#821=PRESENTATION_STYLE_ASSIGNMENT((#820));
#822=OVER_RIDING_STYLED_ITEM('',(#821),#59,#814);
#823=OVER_RIDING_STYLED_ITEM('',(#821),#90,#814);
#824=OVER_RIDING_STYLED_ITEM('',(#821),#121,#814);
#825=OVER_RIDING_STYLED_ITEM('',(#821),#143,#814);
#826=OVER_RIDING_STYLED_ITEM('',(#821),#176,#814);
#827=OVER_RIDING_STYLED_ITEM('',(#821),#213,#814);
#828=OVER_RIDING_STYLED_ITEM('',(#821),#238,#814);
#829=OVER_RIDING_STYLED_ITEM('',(#821),#263,#814);
#830=OVER_RIDING_STYLED_ITEM('',(#821),#296,#814);
#831=OVER_RIDING_STYLED_ITEM('',(#821),#329,#814);
#832=OVER_RIDING_STYLED_ITEM('',(#821),#362,#814);
#833=OVER_RIDING_STYLED_ITEM('',(#821),#404,#814);
#834=OVER_RIDING_STYLED_ITEM('',(#821),#446,#814);
#835=OVER_RIDING_STYLED_ITEM('',(#821),#488,#814);
#836=OVER_RIDING_STYLED_ITEM('',(#821),#580,#814);
#837=OVER_RIDING_STYLED_ITEM('',(#821),#675,#814);
#838=OVER_RIDING_STYLED_ITEM('',(#821),#697,#814);
#839=OVER_RIDING_STYLED_ITEM('',(#821),#719,#814);
#840=OVER_RIDING_STYLED_ITEM('',(#821),#741,#814);
#841=OVER_RIDING_STYLED_ITEM('',(#821),#753,#814);
#842=OVER_RIDING_STYLED_ITEM('',(#821),#765,#814);
#843=OVER_RIDING_STYLED_ITEM('',(#821),#777,#814);
#844=OVER_RIDING_STYLED_ITEM('',(#821),#789,#814);
#845=OVER_RIDING_STYLED_ITEM('',(#821),#801,#814);
#846=OVER_RIDING_STYLED_ITEM('',(#821),#813,#814);
#847=MANIFOLD_SOLID_BREP('S1',#814);
#848=ADVANCED_BREP_SHAPE_REPRESENTATION('',(#847), #5);
#849=SHAPE_REPRESENTATION_RELATIONSHIP('','',#18,#848);
#850=PRESENTATION_LAYER_ASSIGNMENT('图层0000','',(#847));
#851=MECHANICAL_DESIGN_GEOMETRIC_PRESENTATION_REPRESENTATION('',(#822,#823,#824,#825,#826,#827,#828,#829,#830,#831,#832,#833,#834,#835,#836,#837,#838,#839,#840,#841,#842,#843,#844,#845,#846),#5);
ENDSEC;
END-ISO-10303-21;
