ISO-10303-21;
HEADER;
FILE_DESCRIPTION(
  ('This file contains a STEP AP42 implementation'
    ,'as created by ZW3D STEP Interface translator.'
    ,'')
  ,'2;1'
  );
FILE_NAME(
  '×¦×Ó·½°¸1²âÊÔ.stp'
  ,'26 916.112952',
  (''),
  ('ZWCAD Software Co.'),
  'Version 1.0',
  'ZW3D to STEP translator',
  ''
  );
FILE_SCHEMA(('AUTOMOTIVE_DESIGN { 1 0 10303 214 1 1 1 1 }'));
ENDSEC;

DATA;

/**File Base Unit**/
#1=(LENGTH_UNIT()NAMED_UNIT(*)SI_UNIT(.MILLI.,.METRE.));
#2=(NAMED_UNIT(*)PLANE_ANGLE_UNIT()SI_UNIT($,.RADIAN.));
#3=(NAMED_UNIT(*)SI_UNIT($,.STERADIAN.)SOLID_ANGLE_UNIT());
#4=UNCERTAINTY_MEASURE_WITH_UNIT(LENGTH_MEASURE(0.01),#1,'DISTANCE_ACCURACY_VALUE','Maximum Tolerance applied to model');
#5=(GEOMETRIC_REPRESENTATION_CONTEXT(3)GLOBAL_UNCERTAINTY_ASSIGNED_CONTEXT((#4))GLOBAL_UNIT_ASSIGNED_CONTEXT((#1,#2,#3))REPRESENTATION_CONTEXT('STEP 203','TOP_LEVEL_ASSEMBLY_PART'));

/**product_definition_shape**/
#6=APPLICATION_CONTEXT('mechanical parts and assemblies' );
#7=DESIGN_CONTEXT('NONE',#6,'design');
#8=MECHANICAL_CONTEXT('NONE',#6,'mechanical');
#9=PRODUCT('0','Part','',(#8));
#10=PRODUCT_DEFINITION_FORMATION_WITH_SPECIFIED_SOURCE('ANY','',#9,.NOT_KNOWN.);
#11=PRODUCT_DEFINITION('UNKNOWN','',#10,#7);
#12=PRODUCT_DEFINITION_SHAPE('NONE','NONE',#11);
#13=PRODUCT_RELATED_PRODUCT_CATEGORY('detail','',(#9));
/**geometry information**/
#14=CARTESIAN_POINT('',(0.,0.,0.));
#15=DIRECTION('',(0.,0.,1.));
#16=DIRECTION('',(1.,0.,0.));
#17=AXIS2_PLACEMENT_3D('',#14,#15,#16);
#18=SHAPE_REPRESENTATION('none',(#17),#5);
#19=SHAPE_DEFINITION_REPRESENTATION(#12,#18);
#20=CARTESIAN_POINT('',(-15.,-4.4408920985006E-16,-1.));
#21=DIRECTION('',(1.,8.6204693789515E-17,-6.9388939039072E-17));
#22=DIRECTION('',(0.,6.1232339957368E-17,1.));
#23=AXIS2_PLACEMENT_3D('',#20,#22,#21);
#24=CYLINDRICAL_SURFACE('',#23,1.6);
#25=CARTESIAN_POINT('',(-13.4,-2.4492935982947E-16,-1.6653345369377E-16));
#26=VERTEX_POINT('',#25);
#27=CARTESIAN_POINT('',(-13.4,-1.2246467991474E-16,2.));
#28=VERTEX_POINT('',#27);
#29=CARTESIAN_POINT('',(-13.4,-2.4492935982947E-16,-2.2204460492503E-16));
#30=DIRECTION('',(8.8817841970013E-16,6.1232339957368E-17,1.));
#31=VECTOR('',#30,2.);
#32=LINE('',#29,#31);
#33=EDGE_CURVE('',#26,#28,#32,.T.);
#34=ORIENTED_EDGE('E30',*,*,#33,.T.);
#35=CARTESIAN_POINT('',(-15.,-2.0065756303353E-15,2.));
#36=DIRECTION('',(1.,1.1775693440128E-15,-9.8130778667736E-17));
#37=DIRECTION('',(9.8130778667736E-17,9.8130778667736E-17,1.));
#38=AXIS2_PLACEMENT_3D('',#35,#37,#36);
#39=CIRCLE('',#38,1.6);
#40=EDGE_CURVE('',#28,#28,#39,.T.);
#41=ORIENTED_EDGE('E42',*,*,#40,.F.);
#42=ORIENTED_EDGE('E42',*,*,#33,.F.);
#43=CARTESIAN_POINT('',(-15.,-2.4492935982947E-16,-6.5035359056654E-17));
#44=DIRECTION('',(1.,8.2609334523982E-34,-2.8741839628664E-17));
#45=DIRECTION('',(-2.8741839628664E-17,2.8741839628664E-17,-1.));
#46=AXIS2_PLACEMENT_3D('',#43,#45,#44);
#47=CIRCLE('',#46,1.6);
#48=EDGE_CURVE('',#26,#26,#47,.T.);
#49=ORIENTED_EDGE('E41',*,*,#48,.F.);
#50=EDGE_LOOP('',(#34,#41,#42,#49));
#51=FACE_OUTER_BOUND('',#50,.F.);
#52=ADVANCED_FACE('F36',(#51),#24,.F.);
#53=CARTESIAN_POINT('',(7.5,12.990381056767,-1.));
#54=DIRECTION('',(-0.5,-0.86602540378444,-1.3877787807814E-16));
#55=DIRECTION('',(0.,0.,1.));
#56=AXIS2_PLACEMENT_3D('',#53,#55,#54);
#57=CYLINDRICAL_SURFACE('',#56,1.6);
#58=CARTESIAN_POINT('',(6.7,11.604740410711,-2.2204460492503E-16));
#59=VERTEX_POINT('',#58);
#60=CARTESIAN_POINT('',(6.7,11.604740410711,2.));
#61=VERTEX_POINT('',#60);
#62=CARTESIAN_POINT('',(6.7,11.604740410711,-2.2204460492503E-16));
#63=DIRECTION('',(0.,0.,1.));
#64=VECTOR('',#63,2.);
#65=LINE('',#62,#64);
#66=EDGE_CURVE('',#59,#61,#65,.T.);
#67=ORIENTED_EDGE('E32',*,*,#66,.T.);
#68=CARTESIAN_POINT('',(7.5,12.990381056767,2.));
#69=DIRECTION('',(-0.5,-0.86602540378444,-9.8130778667736E-17));
#70=DIRECTION('',(3.5918357885539E-17,-1.3404913655328E-16,1.));
#71=AXIS2_PLACEMENT_3D('',#68,#70,#69);
#72=CIRCLE('',#71,1.6);
#73=EDGE_CURVE('',#61,#61,#72,.T.);
#74=ORIENTED_EDGE('E40',*,*,#73,.F.);
#75=ORIENTED_EDGE('E40',*,*,#66,.F.);
#76=CARTESIAN_POINT('',(7.5,12.990381056767,-1.3007071811331E-16));
#77=DIRECTION('',(-0.5,-0.86602540378444,-5.7483679257327E-17));
#78=DIRECTION('',(7.8524166168506E-17,2.1040486911178E-17,-1.));
#79=AXIS2_PLACEMENT_3D('',#76,#78,#77);
#80=CIRCLE('',#79,1.6);
#81=EDGE_CURVE('',#59,#59,#80,.T.);
#82=ORIENTED_EDGE('E38',*,*,#81,.F.);
#83=EDGE_LOOP('',(#67,#74,#75,#82));
#84=FACE_OUTER_BOUND('',#83,.F.);
#85=ADVANCED_FACE('F37',(#84),#57,.F.);
#86=CARTESIAN_POINT('',(7.5,-12.990381056767,-1.));
#87=DIRECTION('',(-0.5,0.86602540378444,0.));
#88=DIRECTION('',(0.,0.,1.));
#89=AXIS2_PLACEMENT_3D('',#86,#88,#87);
#90=CYLINDRICAL_SURFACE('',#89,1.6);
#91=CARTESIAN_POINT('',(6.7,-11.604740410711,-5.5511151231258E-17));
#92=VERTEX_POINT('',#91);
#93=CARTESIAN_POINT('',(6.7,-11.604740410711,2.));
#94=VERTEX_POINT('',#93);
#95=CARTESIAN_POINT('',(6.7,-11.604740410711,-1.1102230246252E-16));
#96=DIRECTION('',(0.,0.,1.));
#97=VECTOR('',#96,2.);
#98=LINE('',#95,#97);
#99=EDGE_CURVE('',#92,#94,#98,.T.);
#100=ORIENTED_EDGE('E35',*,*,#99,.T.);
#101=CARTESIAN_POINT('',(7.5,-12.990381056767,2.));
#102=DIRECTION('',(-0.5,0.86602540378444,-9.8130778667736E-17));
#103=DIRECTION('',(-1.3404913655328E-16,3.5918357885539E-17,1.));
#104=AXIS2_PLACEMENT_3D('',#101,#103,#102);
#105=CIRCLE('',#104,1.6);
#106=EDGE_CURVE('',#94,#94,#105,.T.);
#107=ORIENTED_EDGE('E39',*,*,#106,.F.);
#108=ORIENTED_EDGE('E39',*,*,#99,.F.);
#109=CARTESIAN_POINT('',(7.5,-12.990381056767,0.));
#110=DIRECTION('',(-0.5,0.86602540378444,-0.));
#111=DIRECTION('',(0.,0.,-1.));
#112=AXIS2_PLACEMENT_3D('',#109,#111,#110);
#113=CIRCLE('',#112,1.6);
#114=EDGE_CURVE('',#92,#92,#113,.T.);
#115=ORIENTED_EDGE('E37',*,*,#114,.F.);
#116=EDGE_LOOP('',(#100,#107,#108,#115));
#117=FACE_OUTER_BOUND('',#116,.F.);
#118=ADVANCED_FACE('F38',(#117),#90,.F.);
#119=CARTESIAN_POINT('',(-5.4,-9.2444637330587E-32,5.));
#120=DIRECTION('',(-2.0816681711722E-16,-1.,0.));
#121=DIRECTION('',(-1.,2.0816681711722E-16,8.8817841970013E-17));
#122=AXIS2_PLACEMENT_3D('',#119,#121,#120);
#123=PLANE('',#122);
#124=CARTESIAN_POINT('',(-5.4,3.4351128074635,0.));
#125=VERTEX_POINT('',#124);
#126=CARTESIAN_POINT('',(-5.3999999999999,-3.4351128074637,0.));
#127=VERTEX_POINT('',#126);
#128=CARTESIAN_POINT('',(-5.4,3.4351128074635,0.));
#129=DIRECTION('',(0.,-1.,0.));
#130=VECTOR('',#129,6.8702256149271);
#131=LINE('',#128,#130);
#132=EDGE_CURVE('',#125,#127,#131,.T.);
#133=ORIENTED_EDGE('E7',*,*,#132,.T.);
#134=CARTESIAN_POINT('',(-5.4,-3.4351128074635,1.2));
#135=VERTEX_POINT('',#134);
#136=CARTESIAN_POINT('',(-5.4,-3.4351128074635,0.));
#137=DIRECTION('',(0.,0.,1.));
#138=VECTOR('',#137,1.2);
#139=LINE('',#136,#138);
#140=EDGE_CURVE('',#127,#135,#139,.T.);
#141=ORIENTED_EDGE('E22',*,*,#140,.T.);
#142=CARTESIAN_POINT('',(-5.4,-2.8530743608719,1.2));
#143=VERTEX_POINT('',#142);
#144=CARTESIAN_POINT('',(-5.4,-3.4351128074635,1.2));
#145=DIRECTION('',(0.,1.,3.8149473840657E-16));
#146=VECTOR('',#145,0.5820384465916);
#147=LINE('',#144,#146);
#148=EDGE_CURVE('',#135,#143,#147,.T.);
#149=ORIENTED_EDGE('E102',*,*,#148,.T.);
#150=CARTESIAN_POINT('',(-5.4,-2.8530743608719,2.));
#151=VERTEX_POINT('',#150);
#152=CARTESIAN_POINT('',(-5.4,-2.8530743608719,1.2));
#153=DIRECTION('',(-1.1102230246252E-15,-1.1102230246252E-15,1.));
#154=VECTOR('',#153,0.8);
#155=LINE('',#152,#154);
#156=EDGE_CURVE('',#143,#151,#155,.T.);
#157=ORIENTED_EDGE('E103',*,*,#156,.T.);
#158=CARTESIAN_POINT('',(-5.4,2.8530743608719,2.));
#159=VERTEX_POINT('',#158);
#160=CARTESIAN_POINT('',(-5.4,2.8530743608719,2.));
#161=DIRECTION('',(-4.6695860711567E-16,-1.,-3.8913217259639E-17));
#162=VECTOR('',#161,5.7061487217439);
#163=LINE('',#160,#162);
#164=EDGE_CURVE('',#159,#151,#163,.T.);
#165=ORIENTED_EDGE('E24',*,*,#164,.F.);
#166=CARTESIAN_POINT('',(-5.4,2.8530743608719,1.2));
#167=VERTEX_POINT('',#166);
#168=CARTESIAN_POINT('',(-5.4,2.8530743608719,2.));
#169=DIRECTION('',(0.,-1.1102230246252E-15,-1.));
#170=VECTOR('',#169,0.8);
#171=LINE('',#168,#170);
#172=EDGE_CURVE('',#159,#167,#171,.T.);
#173=ORIENTED_EDGE('E120',*,*,#172,.T.);
#174=CARTESIAN_POINT('',(-5.4,3.4351128074635,1.2));
#175=VERTEX_POINT('',#174);
#176=CARTESIAN_POINT('',(-5.4,2.8530743608719,1.2));
#177=DIRECTION('',(0.,1.,0.));
#178=VECTOR('',#177,0.58203844659159);
#179=LINE('',#176,#178);
#180=EDGE_CURVE('',#167,#175,#179,.T.);
#181=ORIENTED_EDGE('E121',*,*,#180,.T.);
#182=CARTESIAN_POINT('',(-5.4,3.4351128074635,1.2));
#183=DIRECTION('',(0.,-3.7007434154172E-16,-1.));
#184=VECTOR('',#183,1.2);
#185=LINE('',#182,#184);
#186=EDGE_CURVE('',#175,#125,#185,.T.);
#187=ORIENTED_EDGE('E23',*,*,#186,.T.);
#188=EDGE_LOOP('',(#133,#141,#149,#157,#165,#173,#181,#187));
#189=FACE_OUTER_BOUND('',#188,.F.);
#190=ADVANCED_FACE('F19',(#189),#123,.F.);
#191=CARTESIAN_POINT('',(1.1102230246252E-15,0.,-1.568052492936E-16));
#192=DIRECTION('',(1.,-4.7837765591693E-17,2.4500820202126E-17));
#193=DIRECTION('',(-2.2204460492503E-17,6.1232339957368E-17,1.));
#194=AXIS2_PLACEMENT_3D('',#191,#193,#192);
#195=CYLINDRICAL_SURFACE('',#194,6.4);
#196=CARTESIAN_POINT('',(5.4,3.4351128074635,0.));
#197=VERTEX_POINT('',#196);
#198=CARTESIAN_POINT('',(5.4,3.4351128074635,2.));
#199=VERTEX_POINT('',#198);
#200=CARTESIAN_POINT('',(5.4,3.4351128074635,0.));
#201=DIRECTION('',(0.,2.2204460492503E-16,1.));
#202=VECTOR('',#201,2.);
#203=LINE('',#200,#202);
#204=EDGE_CURVE('',#197,#199,#203,.T.);
#205=ORIENTED_EDGE('E20',*,*,#204,.F.);
#206=CARTESIAN_POINT('',(1.7763568394003E-15,2.6645352591004E-15,0.));
#207=DIRECTION('',(0.84375,0.53673637616618,0.));
#208=DIRECTION('',(0.,0.,1.));
#209=AXIS2_PLACEMENT_3D('',#206,#208,#207);
#210=CIRCLE('',#209,6.4);
#211=EDGE_CURVE('',#197,#125,#210,.T.);
#212=ORIENTED_EDGE('E16',*,*,#211,.T.);
#213=ORIENTED_EDGE('E16',*,*,#186,.F.);
#214=CARTESIAN_POINT('',(0.057886169876049,6.3997382127191,1.2));
#215=VERTEX_POINT('',#214);
#216=CARTESIAN_POINT('',(-8.8817841970013E-16,0.,1.2));
#217=DIRECTION('',(-0.84375,0.53673637616618,-1.0408340855861E-16));
#218=DIRECTION('',(4.9286245244367E-17,-9.3898950473575E-17,-1.));
#219=AXIS2_PLACEMENT_3D('',#216,#218,#217);
#220=CIRCLE('',#219,6.4);
#221=EDGE_CURVE('',#175,#215,#220,.T.);
#222=ORIENTED_EDGE('E122',*,*,#221,.T.);
#223=CARTESIAN_POINT('',(0.057886169876069,6.3997382127191,2.));
#224=VERTEX_POINT('',#223);
#225=CARTESIAN_POINT('',(0.057886169876061,6.3997382127191,1.2));
#226=DIRECTION('',(0.,0.,1.));
#227=VECTOR('',#226,0.8);
#228=LINE('',#225,#227);
#229=EDGE_CURVE('',#215,#224,#228,.T.);
#230=ORIENTED_EDGE('E123',*,*,#229,.T.);
#231=CARTESIAN_POINT('',(4.4408920985006E-16,2.6645352591004E-15,2.));
#232=DIRECTION('',(0.84375,0.53673637616618,-1.3877787807814E-16));
#233=DIRECTION('',(1.1220026850583E-16,2.9009086812493E-17,1.));
#234=AXIS2_PLACEMENT_3D('',#231,#233,#232);
#235=CIRCLE('',#234,6.4);
#236=EDGE_CURVE('',#199,#224,#235,.T.);
#237=ORIENTED_EDGE('E25',*,*,#236,.F.);
#238=EDGE_LOOP('',(#205,#212,#213,#222,#230,#237));
#239=FACE_OUTER_BOUND('',#238,.F.);
#240=ADVANCED_FACE('F20',(#239),#195,.F.);
#241=CARTESIAN_POINT('',(5.4,3.0814879110196E-32,5.));
#242=DIRECTION('',(6.9388939039072E-17,1.,0.));
#243=DIRECTION('',(1.,-6.9388939039072E-17,8.8817841970013E-17));
#244=AXIS2_PLACEMENT_3D('',#241,#243,#242);
#245=PLANE('',#244);
#246=CARTESIAN_POINT('',(5.4,-3.4351128074635,0.));
#247=VERTEX_POINT('',#246);
#248=CARTESIAN_POINT('',(5.4,-3.4351128074635,0.));
#249=DIRECTION('',(0.,1.,0.));
#250=VECTOR('',#249,6.8702256149271);
#251=LINE('',#248,#250);
#252=EDGE_CURVE('',#247,#197,#251,.T.);
#253=ORIENTED_EDGE('E5',*,*,#252,.T.);
#254=ORIENTED_EDGE('E5',*,*,#204,.T.);
#255=CARTESIAN_POINT('',(5.4,3.25,2.));
#256=VERTEX_POINT('',#255);
#257=CARTESIAN_POINT('',(5.4,3.25,2.));
#258=DIRECTION('',(0.,1.,0.));
#259=VECTOR('',#258,0.18511280746353);
#260=LINE('',#257,#259);
#261=EDGE_CURVE('',#256,#199,#260,.T.);
#262=ORIENTED_EDGE('E95',*,*,#261,.F.);
#263=CARTESIAN_POINT('',(5.4,3.25,1.2));
#264=VERTEX_POINT('',#263);
#265=CARTESIAN_POINT('',(5.4,3.25,2.));
#266=DIRECTION('',(0.,0.,-1.));
#267=VECTOR('',#266,0.8);
#268=LINE('',#265,#267);
#269=EDGE_CURVE('',#256,#264,#268,.T.);
#270=ORIENTED_EDGE('E113',*,*,#269,.T.);
#271=CARTESIAN_POINT('',(5.4,-3.25,1.2));
#272=VERTEX_POINT('',#271);
#273=CARTESIAN_POINT('',(5.4,3.25,1.2));
#274=DIRECTION('',(-1.3664283380002E-16,-1.,-3.4160708450005E-17));
#275=VECTOR('',#274,6.5);
#276=LINE('',#273,#275);
#277=EDGE_CURVE('',#264,#272,#276,.T.);
#278=ORIENTED_EDGE('E114',*,*,#277,.T.);
#279=CARTESIAN_POINT('',(5.4,-3.25,2.));
#280=VERTEX_POINT('',#279);
#281=CARTESIAN_POINT('',(5.4,-3.25,1.2));
#282=DIRECTION('',(0.,0.,1.));
#283=VECTOR('',#282,0.8);
#284=LINE('',#281,#283);
#285=EDGE_CURVE('',#272,#280,#284,.T.);
#286=ORIENTED_EDGE('E115',*,*,#285,.T.);
#287=CARTESIAN_POINT('',(5.4,-3.4351128074635,2.));
#288=VERTEX_POINT('',#287);
#289=CARTESIAN_POINT('',(5.4,-3.4351128074635,2.));
#290=DIRECTION('',(4.7980387303838E-15,1.,0.));
#291=VECTOR('',#290,0.18511280746354);
#292=LINE('',#289,#291);
#293=EDGE_CURVE('',#288,#280,#292,.T.);
#294=ORIENTED_EDGE('E26',*,*,#293,.F.);
#295=CARTESIAN_POINT('',(5.4,-3.4351128074635,2.));
#296=DIRECTION('',(0.,0.,-1.));
#297=VECTOR('',#296,2.);
#298=LINE('',#295,#297);
#299=EDGE_CURVE('',#288,#247,#298,.T.);
#300=ORIENTED_EDGE('E21',*,*,#299,.T.);
#301=EDGE_LOOP('',(#253,#254,#262,#270,#278,#286,#294,#300));
#302=FACE_OUTER_BOUND('',#301,.F.);
#303=ADVANCED_FACE('F21',(#302),#245,.F.);
#304=ORIENTED_EDGE('',*,*,#140,.F.);
#305=CARTESIAN_POINT('',(-2.2204460492503E-15,-1.7763568394003E-15,0.));
#306=DIRECTION('',(-0.84374999999996,-0.53673637616623,0.));
#307=DIRECTION('',(0.,-0.,1.));
#308=AXIS2_PLACEMENT_3D('',#305,#307,#306);
#309=CIRCLE('',#308,6.4);
#310=EDGE_CURVE('',#127,#247,#309,.T.);
#311=ORIENTED_EDGE('E17',*,*,#310,.T.);
#312=ORIENTED_EDGE('E17',*,*,#299,.F.);
#313=CARTESIAN_POINT('',(0.057886169876056,-6.3997382127191,2.));
#314=VERTEX_POINT('',#313);
#315=CARTESIAN_POINT('',(1.7763568394003E-15,-2.6645352591004E-15,2.));
#316=DIRECTION('',(0.0090447140431336,-0.99995909573736,6.9388939039072E-17));
#317=DIRECTION('',(-4.315390773376E-17,4.2626030010798E-17,1.));
#318=AXIS2_PLACEMENT_3D('',#315,#317,#316);
#319=CIRCLE('',#318,6.4);
#320=EDGE_CURVE('',#314,#288,#319,.T.);
#321=ORIENTED_EDGE('E27',*,*,#320,.F.);
#322=CARTESIAN_POINT('',(0.057886169876059,-6.3997382127191,1.2));
#323=VERTEX_POINT('',#322);
#324=CARTESIAN_POINT('',(0.057886169876054,-6.3997382127191,2.));
#325=DIRECTION('',(0.,0.,-1.));
#326=VECTOR('',#325,0.8);
#327=LINE('',#324,#326);
#328=EDGE_CURVE('',#314,#323,#327,.T.);
#329=ORIENTED_EDGE('E101',*,*,#328,.T.);
#330=CARTESIAN_POINT('',(-1.7763568394003E-15,-3.5527136788005E-15,1.2));
#331=DIRECTION('',(0.0090447140431354,-0.99995909573736,1.0408340855861E-16));
#332=DIRECTION('',(-5.1330357747903E-17,-1.1098992396117E-16,-1.));
#333=AXIS2_PLACEMENT_3D('',#330,#332,#331);
#334=CIRCLE('',#333,6.4);
#335=EDGE_CURVE('',#323,#135,#334,.T.);
#336=ORIENTED_EDGE('E100',*,*,#335,.T.);
#337=EDGE_LOOP('',(#304,#311,#312,#321,#329,#336));
#338=FACE_OUTER_BOUND('',#337,.F.);
#339=ADVANCED_FACE('F22',(#338),#195,.F.);
#340=CARTESIAN_POINT('',(-0.14791691182239,0.,2.));
#341=DIRECTION('',(1.,-9.9504177222692E-17,1.2438022152837E-17));
#342=DIRECTION('',(-1.2438022152837E-17,0.,1.));
#343=AXIS2_PLACEMENT_3D('',#340,#342,#341);
#344=PLANE('',#343);
#345=CARTESIAN_POINT('',(-6.0375005258782,-16.957257661545,2.));
#346=VERTEX_POINT('',#345);
#347=CARTESIAN_POINT('',(17.704166176355,-3.25,2.));
#348=VERTEX_POINT('',#347);
#349=CARTESIAN_POINT('',(-7.105427357601E-15,-3.5527136788005E-15,2.));
#350=DIRECTION('',(-0.33541669588213,-0.94206987008582,0.));
#351=DIRECTION('',(0.,-0.,1.));
#352=AXIS2_PLACEMENT_3D('',#349,#351,#350);
#353=CIRCLE('',#352,18.);
#354=EDGE_CURVE('',#346,#348,#353,.T.);
#355=ORIENTED_EDGE('E2',*,*,#354,.T.);
#356=CARTESIAN_POINT('',(5.4,-3.25,2.));
#357=DIRECTION('',(1.,3.6092588760989E-17,0.));
#358=VECTOR('',#357,12.304166176355);
#359=LINE('',#356,#358);
#360=EDGE_CURVE('',#280,#348,#359,.T.);
#361=ORIENTED_EDGE('E112',*,*,#360,.F.);
#362=ORIENTED_EDGE('E112',*,*,#293,.F.);
#363=ORIENTED_EDGE('E112',*,*,#320,.F.);
#364=CARTESIAN_POINT('',(-6.0375005258782,-16.957257661545,2.));
#365=DIRECTION('',(0.5,0.86602540378444,0.));
#366=VECTOR('',#365,12.190773391508);
#367=LINE('',#364,#366);
#368=EDGE_CURVE('',#346,#314,#367,.T.);
#369=ORIENTED_EDGE('E105',*,*,#368,.F.);
#370=EDGE_LOOP('',(#355,#361,#362,#363,#369));
#371=FACE_OUTER_BOUND('',#370,.T.);
#372=ORIENTED_EDGE('',*,*,#106,.F.);
#373=EDGE_LOOP('',(#372));
#374=FACE_BOUND('',#373,.T.);
#375=ADVANCED_FACE('F91',(#371,#374),#344,.T.);
#376=CARTESIAN_POINT('',(17.704166176355,3.25,2.));
#377=VERTEX_POINT('',#376);
#378=CARTESIAN_POINT('',(-6.0375005258782,16.957257661545,2.));
#379=VERTEX_POINT('',#378);
#380=CARTESIAN_POINT('',(0.,5.3290705182008E-15,2.));
#381=DIRECTION('',(0.98356478757529,0.18055555555555,0.));
#382=DIRECTION('',(0.,0.,1.));
#383=AXIS2_PLACEMENT_3D('',#380,#382,#381);
#384=CIRCLE('',#383,18.);
#385=EDGE_CURVE('',#377,#379,#384,.T.);
#386=ORIENTED_EDGE('E94',*,*,#385,.T.);
#387=CARTESIAN_POINT('',(0.057886169876061,6.3997382127191,2.));
#388=DIRECTION('',(-0.5,0.86602540378444,0.));
#389=VECTOR('',#388,12.190773391508);
#390=LINE('',#387,#389);
#391=EDGE_CURVE('',#224,#379,#390,.T.);
#392=ORIENTED_EDGE('E125',*,*,#391,.F.);
#393=ORIENTED_EDGE('E125',*,*,#236,.F.);
#394=ORIENTED_EDGE('E125',*,*,#261,.F.);
#395=CARTESIAN_POINT('',(17.704166176355,3.25,2.));
#396=DIRECTION('',(-1.,1.0827776628297E-16,0.));
#397=VECTOR('',#396,12.304166176355);
#398=LINE('',#395,#397);
#399=EDGE_CURVE('',#377,#256,#398,.T.);
#400=ORIENTED_EDGE('E111',*,*,#399,.F.);
#401=EDGE_LOOP('',(#386,#392,#393,#394,#400));
#402=FACE_OUTER_BOUND('',#401,.T.);
#403=ORIENTED_EDGE('',*,*,#73,.F.);
#404=EDGE_LOOP('',(#403));
#405=FACE_BOUND('',#404,.T.);
#406=ADVANCED_FACE('F92',(#402,#405),#344,.T.);
#407=CARTESIAN_POINT('',(-11.666665650477,13.707257661545,2.));
#408=VERTEX_POINT('',#407);
#409=CARTESIAN_POINT('',(-11.666665650477,-13.707257661545,2.));
#410=VERTEX_POINT('',#409);
#411=CARTESIAN_POINT('',(-1.0658141036402E-14,-3.1560691949782E-15,2.));
#412=DIRECTION('',(-0.64814809169317,0.76151431453027,0.));
#413=DIRECTION('',(-0.,0.,1.));
#414=AXIS2_PLACEMENT_3D('',#411,#413,#412);
#415=CIRCLE('',#414,18.);
#416=EDGE_CURVE('',#408,#410,#415,.T.);
#417=ORIENTED_EDGE('E96',*,*,#416,.T.);
#418=CARTESIAN_POINT('',(-5.4,-2.8530743608719,2.));
#419=DIRECTION('',(-0.5,-0.86602540378444,0.));
#420=VECTOR('',#419,12.533331300954);
#421=LINE('',#418,#420);
#422=EDGE_CURVE('',#151,#410,#421,.T.);
#423=ORIENTED_EDGE('E104',*,*,#422,.F.);
#424=ORIENTED_EDGE('E104',*,*,#164,.F.);
#425=CARTESIAN_POINT('',(-11.666665650477,13.707257661545,2.));
#426=DIRECTION('',(0.5,-0.86602540378444,0.));
#427=VECTOR('',#426,12.533331300954);
#428=LINE('',#425,#427);
#429=EDGE_CURVE('',#408,#159,#428,.T.);
#430=ORIENTED_EDGE('E124',*,*,#429,.F.);
#431=EDGE_LOOP('',(#417,#423,#424,#430));
#432=FACE_OUTER_BOUND('',#431,.T.);
#433=ORIENTED_EDGE('',*,*,#40,.F.);
#434=EDGE_LOOP('',(#433));
#435=FACE_BOUND('',#434,.T.);
#436=ADVANCED_FACE('F93',(#432,#435),#344,.T.);
#437=CARTESIAN_POINT('',(10.,-8.8817841970013E-16,-1.));
#438=DIRECTION('',(1.,5.5430163801265E-16,0.));
#439=DIRECTION('',(0.,6.1232339957368E-17,1.));
#440=AXIS2_PLACEMENT_3D('',#437,#439,#438);
#441=CYLINDRICAL_SURFACE('',#440,1.05);
#442=CARTESIAN_POINT('',(11.05,-2.4492935982947E-16,-5.5511151231258E-17));
#443=VERTEX_POINT('',#442);
#444=CARTESIAN_POINT('',(11.05,-1.7145055188063E-16,1.2));
#445=VERTEX_POINT('',#444);
#446=CARTESIAN_POINT('',(11.05,-2.4492935982947E-16,-1.1102230246252E-16));
#447=DIRECTION('',(0.,6.1232339957368E-17,1.));
#448=VECTOR('',#447,1.2);
#449=LINE('',#446,#448);
#450=EDGE_CURVE('',#443,#445,#449,.T.);
#451=ORIENTED_EDGE('E45',*,*,#450,.T.);
#452=CARTESIAN_POINT('',(10.,-2.0555615023012E-15,1.2));
#453=DIRECTION('',(1.,1.7943913813529E-15,-2.2429892266911E-16));
#454=DIRECTION('',(-2.2429892266911E-16,2.2429892266911E-16,-1.));
#455=AXIS2_PLACEMENT_3D('',#452,#454,#453);
#456=CIRCLE('',#455,1.05);
#457=EDGE_CURVE('',#445,#445,#456,.T.);
#458=ORIENTED_EDGE('E116',*,*,#457,.T.);
#459=ORIENTED_EDGE('E116',*,*,#450,.F.);
#460=CARTESIAN_POINT('',(10.,3.8310762364404E-16,0.));
#461=DIRECTION('',(1.,-5.9813046045096E-16,-0.));
#462=DIRECTION('',(0.,0.,-1.));
#463=AXIS2_PLACEMENT_3D('',#460,#462,#461);
#464=CIRCLE('',#463,1.05);
#465=EDGE_CURVE('',#443,#443,#464,.T.);
#466=ORIENTED_EDGE('E56',*,*,#465,.F.);
#467=EDGE_LOOP('',(#451,#458,#459,#466));
#468=FACE_OUTER_BOUND('',#467,.F.);
#469=ADVANCED_FACE('F48',(#468),#441,.F.);
#470=CARTESIAN_POINT('',(-5.,8.6602540378444,-1.));
#471=DIRECTION('',(-0.5,0.86602540378444,0.));
#472=DIRECTION('',(0.,0.,1.));
#473=AXIS2_PLACEMENT_3D('',#470,#472,#471);
#474=CYLINDRICAL_SURFACE('',#473,1.05);
#475=CARTESIAN_POINT('',(-5.525,9.5695807118181,-5.5511151231258E-17));
#476=VERTEX_POINT('',#475);
#477=CARTESIAN_POINT('',(-5.525,9.569580711818,1.2));
#478=VERTEX_POINT('',#477);
#479=CARTESIAN_POINT('',(-5.525,9.5695807118181,-1.1102230246252E-16));
#480=DIRECTION('',(7.4014868308344E-16,-1.4802973661669E-15,1.));
#481=VECTOR('',#480,1.2);
#482=LINE('',#479,#481);
#483=EDGE_CURVE('',#476,#478,#482,.T.);
#484=ORIENTED_EDGE('E47',*,*,#483,.T.);
#485=CARTESIAN_POINT('',(-5.,8.6602540378444,1.2));
#486=DIRECTION('',(-0.5,0.86602540378444,-2.2429892266911E-16));
#487=DIRECTION('',(-8.2099103738376E-17,-3.0639802640749E-16,-1.));
#488=AXIS2_PLACEMENT_3D('',#485,#487,#486);
#489=CIRCLE('',#488,1.05);
#490=EDGE_CURVE('',#478,#478,#489,.T.);
#491=ORIENTED_EDGE('E126',*,*,#490,.T.);
#492=ORIENTED_EDGE('E126',*,*,#483,.F.);
#493=CARTESIAN_POINT('',(-5.,8.6602540378444,0.));
#494=DIRECTION('',(-0.5,0.86602540378444,-0.));
#495=DIRECTION('',(0.,0.,-1.));
#496=AXIS2_PLACEMENT_3D('',#493,#495,#494);
#497=CIRCLE('',#496,1.05);
#498=EDGE_CURVE('',#476,#476,#497,.T.);
#499=ORIENTED_EDGE('E54',*,*,#498,.F.);
#500=EDGE_LOOP('',(#484,#491,#492,#499));
#501=FACE_OUTER_BOUND('',#500,.F.);
#502=ADVANCED_FACE('F49',(#501),#474,.F.);
#503=CARTESIAN_POINT('',(-5.,-8.6602540378444,-1.));
#504=DIRECTION('',(-0.5,-0.86602540378444,0.));
#505=DIRECTION('',(0.,0.,1.));
#506=AXIS2_PLACEMENT_3D('',#503,#505,#504);
#507=CYLINDRICAL_SURFACE('',#506,1.05);
#508=CARTESIAN_POINT('',(-5.525,-9.569580711818,-7.456440603693E-17));
#509=VERTEX_POINT('',#508);
#510=CARTESIAN_POINT('',(-5.525,-9.569580711818,1.2));
#511=VERTEX_POINT('',#510);
#512=CARTESIAN_POINT('',(-5.525,-9.569580711818,-1.1102230246252E-16));
#513=DIRECTION('',(0.,0.,1.));
#514=VECTOR('',#513,1.2);
#515=LINE('',#512,#514);
#516=EDGE_CURVE('',#509,#511,#515,.T.);
#517=ORIENTED_EDGE('E50',*,*,#516,.T.);
#518=CARTESIAN_POINT('',(-5.,-8.6602540378444,1.2));
#519=DIRECTION('',(-0.5,-0.86602540378444,-2.2429892266911E-16));
#520=DIRECTION('',(3.0639802640749E-16,8.2099103738376E-17,-1.));
#521=AXIS2_PLACEMENT_3D('',#518,#520,#519);
#522=CIRCLE('',#521,1.05);
#523=EDGE_CURVE('',#511,#511,#522,.T.);
#524=ORIENTED_EDGE('E106',*,*,#523,.T.);
#525=ORIENTED_EDGE('E106',*,*,#516,.F.);
#526=CARTESIAN_POINT('',(-5.,-8.6602540378444,0.));
#527=DIRECTION('',(-0.5,-0.86602540378444,-0.));
#528=DIRECTION('',(0.,0.,-1.));
#529=AXIS2_PLACEMENT_3D('',#526,#528,#527);
#530=CIRCLE('',#529,1.05);
#531=EDGE_CURVE('',#509,#509,#530,.T.);
#532=ORIENTED_EDGE('E52',*,*,#531,.F.);
#533=EDGE_LOOP('',(#517,#524,#525,#532));
#534=FACE_OUTER_BOUND('',#533,.F.);
#535=ADVANCED_FACE('F50',(#534),#507,.F.);
#536=CARTESIAN_POINT('',(0.,0.,0.));
#537=DIRECTION('',(1.,0.,0.));
#538=DIRECTION('',(0.,0.,1.));
#539=AXIS2_PLACEMENT_3D('',#536,#538,#537);
#540=PLANE('',#539);
#541=CARTESIAN_POINT('',(-6.0375005258782,-16.957257661545,0.));
#542=VERTEX_POINT('',#541);
#543=CARTESIAN_POINT('',(17.704166176355,-3.25,3.6175086518225E-18));
#544=VERTEX_POINT('',#543);
#545=CARTESIAN_POINT('',(-7.105427357601E-15,-3.5527136788005E-15,0.));
#546=DIRECTION('',(-0.33541669588213,-0.94206987008582,0.));
#547=DIRECTION('',(0.,-0.,1.));
#548=AXIS2_PLACEMENT_3D('',#545,#547,#546);
#549=CIRCLE('',#548,18.);
#550=EDGE_CURVE('',#542,#544,#549,.T.);
#551=ORIENTED_EDGE('E1',*,*,#550,.T.);
#552=CARTESIAN_POINT('',(15.5,-3.25,0.));
#553=VERTEX_POINT('',#552);
#554=CARTESIAN_POINT('',(17.704166176355,-3.25,0.));
#555=DIRECTION('',(-1.,0.,0.));
#556=VECTOR('',#555,2.2041661763551);
#557=LINE('',#554,#556);
#558=EDGE_CURVE('',#544,#553,#557,.T.);
#559=ORIENTED_EDGE('E176',*,*,#558,.T.);
#560=CARTESIAN_POINT('',(15.5,3.25,0.));
#561=VERTEX_POINT('',#560);
#562=CARTESIAN_POINT('',(15.5,-3.25,0.));
#563=DIRECTION('',(0.,1.,0.));
#564=VECTOR('',#563,6.5);
#565=LINE('',#562,#564);
#566=EDGE_CURVE('',#553,#561,#565,.T.);
#567=ORIENTED_EDGE('E175',*,*,#566,.T.);
#568=CARTESIAN_POINT('',(17.704166176355,3.25,0.));
#569=VERTEX_POINT('',#568);
#570=CARTESIAN_POINT('',(15.5,3.25,0.));
#571=DIRECTION('',(1.,-2.0147719106389E-16,0.));
#572=VECTOR('',#571,2.2041661763551);
#573=LINE('',#570,#572);
#574=EDGE_CURVE('',#561,#569,#573,.T.);
#575=ORIENTED_EDGE('E174',*,*,#574,.T.);
#576=CARTESIAN_POINT('',(-6.0375005258782,16.957257661545,0.));
#577=VERTEX_POINT('',#576);
#578=CARTESIAN_POINT('',(0.,5.3290705182008E-15,0.));
#579=DIRECTION('',(0.98356478757529,0.18055555555555,0.));
#580=DIRECTION('',(0.,0.,1.));
#581=AXIS2_PLACEMENT_3D('',#578,#580,#579);
#582=CIRCLE('',#581,18.);
#583=EDGE_CURVE('',#569,#577,#582,.T.);
#584=ORIENTED_EDGE('E164',*,*,#583,.T.);
#585=CARTESIAN_POINT('',(-4.9354174377006,15.048393758659,0.));
#586=VERTEX_POINT('',#585);
#587=CARTESIAN_POINT('',(-6.0375005258782,16.957257661545,0.));
#588=DIRECTION('',(0.5,-0.86602540378444,0.));
#589=VECTOR('',#588,2.2041661763552);
#590=LINE('',#587,#589);
#591=EDGE_CURVE('',#577,#586,#590,.T.);
#592=ORIENTED_EDGE('E169',*,*,#591,.T.);
#593=CARTESIAN_POINT('',(-10.564582562299,11.798393758659,0.));
#594=VERTEX_POINT('',#593);
#595=CARTESIAN_POINT('',(-4.9354174377006,15.048393758659,0.));
#596=DIRECTION('',(-0.86602540378444,-0.5,0.));
#597=VECTOR('',#596,6.5);
#598=LINE('',#595,#597);
#599=EDGE_CURVE('',#586,#594,#598,.T.);
#600=ORIENTED_EDGE('E172',*,*,#599,.T.);
#601=CARTESIAN_POINT('',(-11.666665650477,13.707257661545,0.));
#602=VERTEX_POINT('',#601);
#603=CARTESIAN_POINT('',(-10.564582562299,11.798393758659,0.));
#604=DIRECTION('',(-0.5,0.86602540378444,0.));
#605=VECTOR('',#604,2.2041661763552);
#606=LINE('',#603,#605);
#607=EDGE_CURVE('',#594,#602,#606,.T.);
#608=ORIENTED_EDGE('E170',*,*,#607,.T.);
#609=CARTESIAN_POINT('',(-11.666665650477,-13.707257661545,-2.2693518823926E-16));
#610=VERTEX_POINT('',#609);
#611=CARTESIAN_POINT('',(-1.0658141036402E-14,-3.1560691949782E-15,0.));
#612=DIRECTION('',(-0.64814809169316,0.76151431453027,0.));
#613=DIRECTION('',(-0.,0.,1.));
#614=AXIS2_PLACEMENT_3D('',#611,#613,#612);
#615=CIRCLE('',#614,18.);
#616=EDGE_CURVE('',#602,#610,#615,.T.);
#617=ORIENTED_EDGE('E163',*,*,#616,.T.);
#618=CARTESIAN_POINT('',(-10.564582562299,-11.798393758659,-1.6189297677128E-19));
#619=VERTEX_POINT('',#618);
#620=CARTESIAN_POINT('',(-11.666665650477,-13.707257661545,0.));
#621=DIRECTION('',(0.5,0.86602540378444,0.));
#622=VECTOR('',#621,2.2041661763552);
#623=LINE('',#620,#622);
#624=EDGE_CURVE('',#610,#619,#623,.T.);
#625=ORIENTED_EDGE('E166',*,*,#624,.T.);
#626=CARTESIAN_POINT('',(-4.9354174377006,-15.048393758659,-5.5511151231258E-17));
#627=VERTEX_POINT('',#626);
#628=CARTESIAN_POINT('',(-10.564582562299,-11.798393758659,0.));
#629=DIRECTION('',(0.86602540378444,-0.5,0.));
#630=VECTOR('',#629,6.5);
#631=LINE('',#628,#630);
#632=EDGE_CURVE('',#619,#627,#631,.T.);
#633=ORIENTED_EDGE('E168',*,*,#632,.T.);
#634=CARTESIAN_POINT('',(-4.9354174377006,-15.048393758659,0.));
#635=DIRECTION('',(-0.5,-0.86602540378444,0.));
#636=VECTOR('',#635,2.2041661763552);
#637=LINE('',#634,#636);
#638=EDGE_CURVE('',#627,#542,#637,.T.);
#639=ORIENTED_EDGE('E167',*,*,#638,.T.);
#640=EDGE_LOOP('',(#551,#559,#567,#575,#584,#592,#600,#608,#617,#625,#633,#639));
#641=FACE_OUTER_BOUND('',#640,.F.);
#642=ORIENTED_EDGE('',*,*,#132,.F.);
#643=ORIENTED_EDGE('',*,*,#211,.F.);
#644=ORIENTED_EDGE('',*,*,#252,.F.);
#645=ORIENTED_EDGE('',*,*,#310,.F.);
#646=EDGE_LOOP('',(#642,#643,#644,#645));
#647=FACE_BOUND('',#646,.F.);
#648=ORIENTED_EDGE('',*,*,#48,.T.);
#649=EDGE_LOOP('',(#648));
#650=FACE_BOUND('',#649,.F.);
#651=ORIENTED_EDGE('',*,*,#81,.T.);
#652=EDGE_LOOP('',(#651));
#653=FACE_BOUND('',#652,.F.);
#654=ORIENTED_EDGE('',*,*,#114,.T.);
#655=EDGE_LOOP('',(#654));
#656=FACE_BOUND('',#655,.F.);
#657=ORIENTED_EDGE('',*,*,#465,.T.);
#658=EDGE_LOOP('',(#657));
#659=FACE_BOUND('',#658,.F.);
#660=ORIENTED_EDGE('',*,*,#498,.T.);
#661=EDGE_LOOP('',(#660));
#662=FACE_BOUND('',#661,.F.);
#663=ORIENTED_EDGE('',*,*,#531,.T.);
#664=EDGE_LOOP('',(#663));
#665=FACE_BOUND('',#664,.F.);
#666=ADVANCED_FACE('F1',(#641,#647,#650,#653,#656,#659,#662,#665),#540,.F.);
#667=CARTESIAN_POINT('',(3.5527136788005E-15,3.5527136788005E-15,-1.0584354327318E-15));
#668=DIRECTION('',(1.,-2.0077477881988E-16,5.8801968485101E-17));
#669=DIRECTION('',(0.,6.1232339957368E-17,1.));
#670=AXIS2_PLACEMENT_3D('',#667,#669,#668);
#671=CYLINDRICAL_SURFACE('',#670,18.);
#672=ORIENTED_EDGE('',*,*,#354,.F.);
#673=CARTESIAN_POINT('',(-6.0375005258782,-16.957257661545,2.));
#674=DIRECTION('',(-4.4408920985006E-16,0.,-1.));
#675=VECTOR('',#674,2.);
#676=LINE('',#673,#675);
#677=EDGE_CURVE('',#346,#542,#676,.T.);
#678=ORIENTED_EDGE('E99',*,*,#677,.T.);
#679=ORIENTED_EDGE('E99',*,*,#550,.T.);
#680=CARTESIAN_POINT('',(17.704166176355,-3.25,2.));
#681=DIRECTION('',(0.,-2.2204460492503E-16,-1.));
#682=VECTOR('',#681,2.);
#683=LINE('',#680,#682);
#684=EDGE_CURVE('',#348,#544,#683,.T.);
#685=ORIENTED_EDGE('E110',*,*,#684,.F.);
#686=EDGE_LOOP('',(#672,#678,#679,#685));
#687=FACE_OUTER_BOUND('',#686,.T.);
#688=ADVANCED_FACE('F112',(#687),#671,.T.);
#689=ORIENTED_EDGE('',*,*,#416,.F.);
#690=CARTESIAN_POINT('',(-11.666665650477,13.707257661545,2.));
#691=DIRECTION('',(-1.7763568394003E-15,0.,-1.));
#692=VECTOR('',#691,2.);
#693=LINE('',#690,#692);
#694=EDGE_CURVE('',#408,#602,#693,.T.);
#695=ORIENTED_EDGE('E117',*,*,#694,.T.);
#696=ORIENTED_EDGE('E117',*,*,#616,.T.);
#697=CARTESIAN_POINT('',(-11.666665650477,-13.707257661545,2.));
#698=DIRECTION('',(8.8817841970013E-16,8.8817841970013E-16,-1.));
#699=VECTOR('',#698,2.);
#700=LINE('',#697,#699);
#701=EDGE_CURVE('',#410,#610,#700,.T.);
#702=ORIENTED_EDGE('E98',*,*,#701,.F.);
#703=EDGE_LOOP('',(#689,#695,#696,#702));
#704=FACE_OUTER_BOUND('',#703,.T.);
#705=ADVANCED_FACE('F113',(#704),#671,.T.);
#706=ORIENTED_EDGE('',*,*,#385,.F.);
#707=CARTESIAN_POINT('',(17.704166176355,3.25,2.));
#708=DIRECTION('',(0.,2.2204460492503E-16,-1.));
#709=VECTOR('',#708,2.);
#710=LINE('',#707,#709);
#711=EDGE_CURVE('',#377,#569,#710,.T.);
#712=ORIENTED_EDGE('E107',*,*,#711,.T.);
#713=ORIENTED_EDGE('E107',*,*,#583,.T.);
#714=CARTESIAN_POINT('',(-6.0375005258782,16.957257661545,2.));
#715=DIRECTION('',(8.8817841970013E-16,-1.7763568394003E-15,-1.));
#716=VECTOR('',#715,2.);
#717=LINE('',#714,#716);
#718=EDGE_CURVE('',#379,#577,#717,.T.);
#719=ORIENTED_EDGE('E119',*,*,#718,.F.);
#720=EDGE_LOOP('',(#706,#712,#713,#719));
#721=FACE_OUTER_BOUND('',#720,.T.);
#722=ADVANCED_FACE('F114',(#721),#671,.T.);
#723=CARTESIAN_POINT('',(-9.3145825622994,-9.6333302491977,1.6));
#724=DIRECTION('',(-0.5,-0.86602540378444,0.));
#725=DIRECTION('',(-0.86602540378444,0.5,0.));
#726=AXIS2_PLACEMENT_3D('',#723,#725,#724);
#727=PLANE('',#726);
#728=ORIENTED_EDGE('',*,*,#422,.F.);
#729=ORIENTED_EDGE('',*,*,#156,.F.);
#730=CARTESIAN_POINT('',(-10.564582562299,-11.798393758659,1.2));
#731=VERTEX_POINT('',#730);
#732=CARTESIAN_POINT('',(-5.4,-2.8530743608719,1.2));
#733=DIRECTION('',(-0.5,-0.86602540378444,0.));
#734=VECTOR('',#733,10.329165124599);
#735=LINE('',#732,#734);
#736=EDGE_CURVE('',#143,#731,#735,.T.);
#737=ORIENTED_EDGE('E86',*,*,#736,.T.);
#738=CARTESIAN_POINT('',(-10.564582562299,-11.798393758659,-1.1102230246252E-16));
#739=DIRECTION('',(0.,0.,1.));
#740=VECTOR('',#739,1.2);
#741=LINE('',#738,#740);
#742=EDGE_CURVE('',#619,#731,#741,.T.);
#743=ORIENTED_EDGE('E157',*,*,#742,.F.);
#744=ORIENTED_EDGE('E157',*,*,#624,.F.);
#745=ORIENTED_EDGE('E157',*,*,#701,.F.);
#746=EDGE_LOOP('',(#728,#729,#737,#743,#744,#745));
#747=FACE_OUTER_BOUND('',#746,.F.);
#748=ADVANCED_FACE('F75',(#747),#727,.F.);
#749=CARTESIAN_POINT('',(-9.3145825622994,9.6333302491977,1.6));
#750=DIRECTION('',(0.5,-0.86602540378444,0.));
#751=DIRECTION('',(-0.86602540378444,-0.5,0.));
#752=AXIS2_PLACEMENT_3D('',#749,#751,#750);
#753=PLANE('',#752);
#754=CARTESIAN_POINT('',(-10.564582562299,11.798393758659,1.2));
#755=VERTEX_POINT('',#754);
#756=CARTESIAN_POINT('',(-10.564582562299,11.798393758659,1.2));
#757=DIRECTION('',(0.5,-0.86602540378444,0.));
#758=VECTOR('',#757,10.329165124599);
#759=LINE('',#756,#758);
#760=EDGE_CURVE('',#755,#167,#759,.T.);
#761=ORIENTED_EDGE('E75',*,*,#760,.T.);
#762=ORIENTED_EDGE('E75',*,*,#172,.F.);
#763=ORIENTED_EDGE('E75',*,*,#429,.F.);
#764=ORIENTED_EDGE('E75',*,*,#694,.T.);
#765=ORIENTED_EDGE('E75',*,*,#607,.F.);
#766=CARTESIAN_POINT('',(-10.564582562299,11.798393758659,-1.1102230246252E-16));
#767=DIRECTION('',(0.,0.,1.));
#768=VECTOR('',#767,1.2);
#769=LINE('',#766,#768);
#770=EDGE_CURVE('',#594,#755,#769,.T.);
#771=ORIENTED_EDGE('E149',*,*,#770,.T.);
#772=EDGE_LOOP('',(#761,#762,#763,#764,#765,#771));
#773=FACE_OUTER_BOUND('',#772,.F.);
#774=ADVANCED_FACE('F74',(#773),#753,.F.);
#775=CARTESIAN_POINT('',(13.,0.,1.2));
#776=DIRECTION('',(1.,0.,0.));
#777=DIRECTION('',(0.,0.,1.));
#778=AXIS2_PLACEMENT_3D('',#775,#777,#776);
#779=PLANE('',#778);
#780=ORIENTED_EDGE('',*,*,#277,.T.);
#781=CARTESIAN_POINT('',(15.5,-3.25,1.2));
#782=VERTEX_POINT('',#781);
#783=CARTESIAN_POINT('',(5.4,-3.25,1.2));
#784=DIRECTION('',(1.,-4.3969228698026E-17,0.));
#785=VECTOR('',#784,10.1);
#786=LINE('',#783,#785);
#787=EDGE_CURVE('',#272,#782,#786,.T.);
#788=ORIENTED_EDGE('E58',*,*,#787,.T.);
#789=CARTESIAN_POINT('',(15.5,3.25,1.2));
#790=VERTEX_POINT('',#789);
#791=CARTESIAN_POINT('',(15.5,3.25,1.2));
#792=DIRECTION('',(0.,-1.,0.));
#793=VECTOR('',#792,6.5);
#794=LINE('',#791,#793);
#795=EDGE_CURVE('',#790,#782,#794,.T.);
#796=ORIENTED_EDGE('E173',*,*,#795,.F.);
#797=CARTESIAN_POINT('',(15.5,3.25,1.2));
#798=DIRECTION('',(-1.,0.,0.));
#799=VECTOR('',#798,10.1);
#800=LINE('',#797,#799);
#801=EDGE_CURVE('',#790,#264,#800,.T.);
#802=ORIENTED_EDGE('E60',*,*,#801,.T.);
#803=EDGE_LOOP('',(#780,#788,#796,#802));
#804=FACE_OUTER_BOUND('',#803,.T.);
#805=ORIENTED_EDGE('',*,*,#457,.T.);
#806=EDGE_LOOP('',(#805));
#807=FACE_BOUND('',#806,.T.);
#808=ADVANCED_FACE('F78',(#804,#807),#779,.T.);
#809=CARTESIAN_POINT('',(13.,-3.25,1.6));
#810=DIRECTION('',(1.,0.,0.));
#811=DIRECTION('',(0.,-1.,0.));
#812=AXIS2_PLACEMENT_3D('',#809,#811,#810);
#813=PLANE('',#812);
#814=ORIENTED_EDGE('',*,*,#360,.F.);
#815=ORIENTED_EDGE('',*,*,#285,.F.);
#816=ORIENTED_EDGE('',*,*,#787,.T.);
#817=CARTESIAN_POINT('',(15.5,-3.25,0.));
#818=DIRECTION('',(1.4802973661669E-15,0.,1.));
#819=VECTOR('',#818,1.2);
#820=LINE('',#817,#819);
#821=EDGE_CURVE('',#553,#782,#820,.T.);
#822=ORIENTED_EDGE('E138',*,*,#821,.F.);
#823=ORIENTED_EDGE('E138',*,*,#558,.F.);
#824=ORIENTED_EDGE('E138',*,*,#684,.F.);
#825=EDGE_LOOP('',(#814,#815,#816,#822,#823,#824));
#826=FACE_OUTER_BOUND('',#825,.F.);
#827=ADVANCED_FACE('F69',(#826),#813,.F.);
#828=CARTESIAN_POINT('',(-3.6854174377006,-12.883330249198,1.6));
#829=DIRECTION('',(0.5,0.86602540378444,0.));
#830=DIRECTION('',(0.86602540378444,-0.5,0.));
#831=AXIS2_PLACEMENT_3D('',#828,#830,#829);
#832=PLANE('',#831);
#833=CARTESIAN_POINT('',(-4.9354174377006,-15.048393758659,1.2));
#834=VERTEX_POINT('',#833);
#835=CARTESIAN_POINT('',(-4.9354174377006,-15.048393758659,1.2));
#836=DIRECTION('',(0.5,0.86602540378444,0.));
#837=VECTOR('',#836,9.9866072151533);
#838=LINE('',#835,#837);
#839=EDGE_CURVE('',#834,#323,#838,.T.);
#840=ORIENTED_EDGE('E87',*,*,#839,.T.);
#841=ORIENTED_EDGE('E87',*,*,#328,.F.);
#842=ORIENTED_EDGE('E87',*,*,#368,.F.);
#843=ORIENTED_EDGE('E87',*,*,#677,.T.);
#844=ORIENTED_EDGE('E87',*,*,#638,.F.);
#845=CARTESIAN_POINT('',(-4.9354174377006,-15.048393758659,-1.1102230246252E-16));
#846=DIRECTION('',(0.,1.4802973661669E-15,1.));
#847=VECTOR('',#846,1.2);
#848=LINE('',#845,#847);
#849=EDGE_CURVE('',#627,#834,#848,.T.);
#850=ORIENTED_EDGE('E161',*,*,#849,.T.);
#851=EDGE_LOOP('',(#840,#841,#842,#843,#844,#850));
#852=FACE_OUTER_BOUND('',#851,.F.);
#853=ADVANCED_FACE('F77',(#852),#832,.F.);
#854=CARTESIAN_POINT('',(-6.5,-11.258330249198,1.2));
#855=DIRECTION('',(-0.5,-0.86602540378444,0.));
#856=DIRECTION('',(0.,0.,1.));
#857=AXIS2_PLACEMENT_3D('',#854,#856,#855);
#858=PLANE('',#857);
#859=ORIENTED_EDGE('',*,*,#335,.T.);
#860=ORIENTED_EDGE('',*,*,#148,.T.);
#861=ORIENTED_EDGE('',*,*,#736,.T.);
#862=CARTESIAN_POINT('',(-4.9354174377006,-15.048393758659,1.2));
#863=DIRECTION('',(-0.86602540378444,0.5,0.));
#864=VECTOR('',#863,6.5);
#865=LINE('',#862,#864);
#866=EDGE_CURVE('',#834,#731,#865,.T.);
#867=ORIENTED_EDGE('E165',*,*,#866,.F.);
#868=ORIENTED_EDGE('E165',*,*,#839,.T.);
#869=EDGE_LOOP('',(#859,#860,#861,#867,#868));
#870=FACE_OUTER_BOUND('',#869,.T.);
#871=ORIENTED_EDGE('',*,*,#523,.T.);
#872=EDGE_LOOP('',(#871));
#873=FACE_BOUND('',#872,.T.);
#874=ADVANCED_FACE('F79',(#870,#873),#858,.T.);
#875=CARTESIAN_POINT('',(-6.5,11.258330249198,1.2));
#876=DIRECTION('',(-0.5,0.86602540378444,0.));
#877=DIRECTION('',(0.,0.,1.));
#878=AXIS2_PLACEMENT_3D('',#875,#877,#876);
#879=PLANE('',#878);
#880=ORIENTED_EDGE('',*,*,#180,.T.);
#881=ORIENTED_EDGE('',*,*,#221,.T.);
#882=CARTESIAN_POINT('',(-4.9354174377006,15.048393758659,1.2));
#883=VERTEX_POINT('',#882);
#884=CARTESIAN_POINT('',(0.057886169876058,6.3997382127191,1.2));
#885=DIRECTION('',(-0.5,0.86602540378444,0.));
#886=VECTOR('',#885,9.9866072151533);
#887=LINE('',#884,#886);
#888=EDGE_CURVE('',#215,#883,#887,.T.);
#889=ORIENTED_EDGE('E74',*,*,#888,.T.);
#890=CARTESIAN_POINT('',(-10.564582562299,11.798393758659,1.2));
#891=DIRECTION('',(0.86602540378444,0.5,0.));
#892=VECTOR('',#891,6.5);
#893=LINE('',#890,#892);
#894=EDGE_CURVE('',#755,#883,#893,.T.);
#895=ORIENTED_EDGE('E171',*,*,#894,.F.);
#896=ORIENTED_EDGE('E171',*,*,#760,.T.);
#897=EDGE_LOOP('',(#880,#881,#889,#895,#896));
#898=FACE_OUTER_BOUND('',#897,.T.);
#899=ORIENTED_EDGE('',*,*,#490,.T.);
#900=EDGE_LOOP('',(#899));
#901=FACE_BOUND('',#900,.T.);
#902=ADVANCED_FACE('F80',(#898,#901),#879,.T.);
#903=CARTESIAN_POINT('',(-3.6854174377006,12.883330249198,1.6));
#904=DIRECTION('',(-0.5,0.86602540378444,0.));
#905=DIRECTION('',(0.86602540378444,0.5,-0.));
#906=AXIS2_PLACEMENT_3D('',#903,#905,#904);
#907=PLANE('',#906);
#908=ORIENTED_EDGE('',*,*,#391,.F.);
#909=ORIENTED_EDGE('',*,*,#229,.F.);
#910=ORIENTED_EDGE('',*,*,#888,.T.);
#911=CARTESIAN_POINT('',(-4.9354174377006,15.048393758659,-1.1102230246252E-16));
#912=DIRECTION('',(0.,-1.4802973661669E-15,1.));
#913=VECTOR('',#912,1.2);
#914=LINE('',#911,#913);
#915=EDGE_CURVE('',#586,#883,#914,.T.);
#916=ORIENTED_EDGE('E145',*,*,#915,.F.);
#917=ORIENTED_EDGE('E145',*,*,#591,.F.);
#918=ORIENTED_EDGE('E145',*,*,#718,.F.);
#919=EDGE_LOOP('',(#908,#909,#910,#916,#917,#918));
#920=FACE_OUTER_BOUND('',#919,.F.);
#921=ADVANCED_FACE('F72',(#920),#907,.F.);
#922=CARTESIAN_POINT('',(13.,3.25,1.6));
#923=DIRECTION('',(-1.,1.1102230246252E-16,0.));
#924=DIRECTION('',(1.1102230246252E-16,1.,-0.));
#925=AXIS2_PLACEMENT_3D('',#922,#924,#923);
#926=PLANE('',#925);
#927=ORIENTED_EDGE('',*,*,#801,.T.);
#928=ORIENTED_EDGE('',*,*,#269,.F.);
#929=ORIENTED_EDGE('',*,*,#399,.F.);
#930=ORIENTED_EDGE('',*,*,#711,.T.);
#931=ORIENTED_EDGE('',*,*,#574,.F.);
#932=CARTESIAN_POINT('',(15.5,3.25,0.));
#933=DIRECTION('',(1.4802973661669E-15,0.,1.));
#934=VECTOR('',#933,1.2);
#935=LINE('',#932,#934);
#936=EDGE_CURVE('',#561,#790,#935,.T.);
#937=ORIENTED_EDGE('E137',*,*,#936,.T.);
#938=EDGE_LOOP('',(#927,#928,#929,#930,#931,#937));
#939=FACE_OUTER_BOUND('',#938,.F.);
#940=ADVANCED_FACE('F71',(#939),#926,.F.);
#941=CARTESIAN_POINT('',(15.5,0.,1.5));
#942=DIRECTION('',(0.,-1.,0.));
#943=DIRECTION('',(-1.,0.,0.));
#944=AXIS2_PLACEMENT_3D('',#941,#943,#942);
#945=PLANE('',#944);
#946=ORIENTED_EDGE('',*,*,#936,.F.);
#947=ORIENTED_EDGE('',*,*,#566,.F.);
#948=ORIENTED_EDGE('',*,*,#821,.T.);
#949=ORIENTED_EDGE('',*,*,#795,.F.);
#950=EDGE_LOOP('',(#946,#947,#948,#949));
#951=FACE_OUTER_BOUND('',#950,.F.);
#952=ADVANCED_FACE('F115',(#951),#945,.F.);
#953=CARTESIAN_POINT('',(-7.75,13.423393758659,1.5));
#954=DIRECTION('',(0.86602540378444,0.5,0.));
#955=DIRECTION('',(0.5,-0.86602540378444,0.));
#956=AXIS2_PLACEMENT_3D('',#953,#955,#954);
#957=PLANE('',#956);
#958=ORIENTED_EDGE('',*,*,#770,.F.);
#959=ORIENTED_EDGE('',*,*,#599,.F.);
#960=ORIENTED_EDGE('',*,*,#915,.T.);
#961=ORIENTED_EDGE('',*,*,#894,.F.);
#962=EDGE_LOOP('',(#958,#959,#960,#961));
#963=FACE_OUTER_BOUND('',#962,.F.);
#964=ADVANCED_FACE('F116',(#963),#957,.F.);
#965=CARTESIAN_POINT('',(-7.75,-13.423393758659,1.5));
#966=DIRECTION('',(-0.86602540378444,0.5,0.));
#967=DIRECTION('',(0.5,0.86602540378444,-0.));
#968=AXIS2_PLACEMENT_3D('',#965,#967,#966);
#969=PLANE('',#968);
#970=ORIENTED_EDGE('',*,*,#849,.F.);
#971=ORIENTED_EDGE('',*,*,#632,.F.);
#972=ORIENTED_EDGE('',*,*,#742,.T.);
#973=ORIENTED_EDGE('',*,*,#866,.F.);
#974=EDGE_LOOP('',(#970,#971,#972,#973));
#975=FACE_OUTER_BOUND('',#974,.F.);
#976=ADVANCED_FACE('F117',(#975),#969,.F.);
#977=CLOSED_SHELL('',(#52,#85,#118,#190,#240,#303,#339,#375,#406,#436,#469,#502,#535,#666,#688,#705,#722,#748,#774,#808,#827,#853,#874,#902,#921,#940,#952,#964,#976));
#978=COLOUR_RGB('',0.745098,0.901961,0.960784);
#979=FILL_AREA_STYLE_COLOUR('',#978);
#980=FILL_AREA_STYLE('',(#979));
#981=SURFACE_STYLE_FILL_AREA(#980);
#982=SURFACE_SIDE_STYLE('',(#981));
#983=SURFACE_STYLE_USAGE(.BOTH.,#982);
#984=PRESENTATION_STYLE_ASSIGNMENT((#983));
#985=OVER_RIDING_STYLED_ITEM('',(#984),#52,#977);
#986=OVER_RIDING_STYLED_ITEM('',(#984),#85,#977);
#987=OVER_RIDING_STYLED_ITEM('',(#984),#118,#977);
#988=OVER_RIDING_STYLED_ITEM('',(#984),#190,#977);
#989=OVER_RIDING_STYLED_ITEM('',(#984),#240,#977);
#990=OVER_RIDING_STYLED_ITEM('',(#984),#303,#977);
#991=OVER_RIDING_STYLED_ITEM('',(#984),#339,#977);
#992=OVER_RIDING_STYLED_ITEM('',(#984),#375,#977);
#993=OVER_RIDING_STYLED_ITEM('',(#984),#406,#977);
#994=OVER_RIDING_STYLED_ITEM('',(#984),#436,#977);
#995=OVER_RIDING_STYLED_ITEM('',(#984),#469,#977);
#996=OVER_RIDING_STYLED_ITEM('',(#984),#502,#977);
#997=OVER_RIDING_STYLED_ITEM('',(#984),#535,#977);
#998=OVER_RIDING_STYLED_ITEM('',(#984),#666,#977);
#999=OVER_RIDING_STYLED_ITEM('',(#984),#688,#977);
#1000=OVER_RIDING_STYLED_ITEM('',(#984),#705,#977);
#1001=OVER_RIDING_STYLED_ITEM('',(#984),#722,#977);
#1002=OVER_RIDING_STYLED_ITEM('',(#984),#748,#977);
#1003=OVER_RIDING_STYLED_ITEM('',(#984),#774,#977);
#1004=OVER_RIDING_STYLED_ITEM('',(#984),#808,#977);
#1005=OVER_RIDING_STYLED_ITEM('',(#984),#827,#977);
#1006=OVER_RIDING_STYLED_ITEM('',(#984),#853,#977);
#1007=OVER_RIDING_STYLED_ITEM('',(#984),#874,#977);
#1008=OVER_RIDING_STYLED_ITEM('',(#984),#902,#977);
#1009=OVER_RIDING_STYLED_ITEM('',(#984),#921,#977);
#1010=OVER_RIDING_STYLED_ITEM('',(#984),#940,#977);
#1011=OVER_RIDING_STYLED_ITEM('',(#984),#952,#977);
#1012=OVER_RIDING_STYLED_ITEM('',(#984),#964,#977);
#1013=OVER_RIDING_STYLED_ITEM('',(#984),#976,#977);
#1014=MANIFOLD_SOLID_BREP('S1',#977);
#1015=ADVANCED_BREP_SHAPE_REPRESENTATION('',(#1014), #5);
#1016=SHAPE_REPRESENTATION_RELATIONSHIP('','',#18,#1015);
#1017=PRESENTATION_LAYER_ASSIGNMENT('Í¼²ã0000','',(#1014));
#1018=MECHANICAL_DESIGN_GEOMETRIC_PRESENTATION_REPRESENTATION('',(#985,#986,#987,#988,#989,#990,#991,#992,#993,#994,#995,#996,#997,#998,#999,#1000,#1001,#1002,#1003,#1004,#1005,#1006,#1007,#1008,#1009,#1010,#1011,#1012,#1013),#5);
ENDSEC;
END-ISO-10303-21;
